<?xml version="1.0" encoding="UTF-8"?>
<svg version="1.1" xmlns="http://www.w3.org/2000/svg" width="100" height="100">
<path d="M0 0 C0.76376953 -0.01998047 1.52753906 -0.03996094 2.31445312 -0.06054688 C5.96223085 -0.05737213 7.93345576 -0.02545995 10.9296875 2.1796875 C12.53482824 4.39923619 13.93267781 6.59875506 15.25 9 C17.49174206 12.8542232 19.93272533 16.22209166 22.8125 19.625 C35.86960019 35.19647421 44.74125414 49.63467224 43.5625 70.4375 C41.88427506 80.00907103 35.46690507 90.67176 27.90812683 96.77282715 C22.42352574 100.54439827 18.11560768 101.15306126 11.55078125 101.03125 C10.61952927 101.03129028 9.68827728 101.03133057 8.72880554 101.03137207 C6.77315468 101.0260405 4.81750264 101.00855979 2.86206055 100.97949219 C-0.1271308 100.93747005 -3.11407722 100.93844418 -6.10351562 100.9453125 C-8.01043228 100.93482421 -9.91733738 100.92188806 -11.82421875 100.90625 C-12.7138884 100.90604858 -13.60355804 100.90584717 -14.52018738 100.90563965 C-19.37949211 100.81300608 -22.40832696 100.41833618 -26.4375 97.4375 C-27.7678125 96.9734375 -27.7678125 96.9734375 -29.125 96.5 C-31.99161053 95.18290868 -32.15476817 94.24347589 -33.4375 91.4375 C-34.30375 90.591875 -35.17 89.74625 -36.0625 88.875 C-38.4375 86.4375 -38.4375 86.4375 -38.4375 83.4375 C-39.0975 83.1075 -39.7575 82.7775 -40.4375 82.4375 C-40.4375 81.4475 -40.4375 80.4575 -40.4375 79.4375 C-41.0975 78.7775 -41.7575 78.1175 -42.4375 77.4375 C-41.9425 76.4475 -41.9425 76.4475 -41.4375 75.4375 C-42.0975 75.1075 -42.7575 74.7775 -43.4375 74.4375 C-42.9425 73.9425 -42.9425 73.9425 -42.4375 73.4375 C-42.67578729 71.80353 -42.91738589 70.16997348 -43.17578125 68.5390625 C-43.86030291 63.04245576 -43.58379824 57.8414774 -42.4375 52.4375 C-42.7675 51.7775 -43.0975 51.1175 -43.4375 50.4375 C-42.4475 49.9425 -42.4475 49.9425 -41.4375 49.4375 C-41.7675 48.7775 -42.0975 48.1175 -42.4375 47.4375 C-41.7775 46.7775 -41.1175 46.1175 -40.4375 45.4375 C-39.78982207 42.86688689 -39.78982207 42.86688689 -39.4375 40.4375 C-38.7775 40.4375 -38.1175 40.4375 -37.4375 40.4375 C-37.1075 38.7875 -36.7775 37.1375 -36.4375 35.4375 C-35.7775 35.4375 -35.1175 35.4375 -34.4375 35.4375 C-34.4375 34.4475 -34.4375 33.4575 -34.4375 32.4375 C-33.7775 32.4375 -33.1175 32.4375 -32.4375 32.4375 C-32.4375 31.4475 -32.4375 30.4575 -32.4375 29.4375 C-31.7775 28.7775 -31.1175 28.1175 -30.4375 27.4375 C-29.42344743 26.11482273 -28.42481742 24.78025169 -27.4375 23.4375 C-26.4375 22.10416667 -25.4375 20.77083333 -24.4375 19.4375 C-23.963125 18.73625 -23.48875 18.035 -23 17.3125 C-21.30229834 15.27525801 -19.86609257 14.44243486 -17.4375 13.4375 C-17.7675 12.4475 -18.0975 11.4575 -18.4375 10.4375 C-17.1175 10.1075 -15.7975 9.7775 -14.4375 9.4375 C-14.7675 8.4475 -15.0975 7.4575 -15.4375 6.4375 C-14.4475 6.4375 -13.4575 6.4375 -12.4375 6.4375 C-12.1075 5.4475 -11.7775 4.4575 -11.4375 3.4375 C-8.82194252 -0.757262 -4.42646882 -0.04088258 0 0 Z " fill="#2396F3" transform="translate(48.4375,-0.4375)"/>
<path d="M0 0 C-2.8615462 6.24465501 -6.3207057 11.29345844 -10.625 16.625 C-11.87815282 18.2107788 -13.12943918 19.79803425 -14.37890625 21.38671875 C-14.99266113 22.1657959 -15.60641602 22.94487305 -16.23876953 23.74755859 C-28.01221363 38.80464138 -35.5883868 51.49719933 -33.796875 71.23828125 C-32.09142083 80.19191565 -25.88652151 88.32434064 -18.62109375 93.5625 C-13.71465758 96.25336216 -8.4057722 97.6548233 -3 99 C-3 99.33 -3 99.66 -3 100 C-5.89640118 100.08120751 -8.79050912 100.14059421 -11.6875 100.1875 C-12.50412109 100.21263672 -13.32074219 100.23777344 -14.16210938 100.26367188 C-19.03473554 100.32285357 -21.95666923 99.99842506 -26 97 C-27.3303125 96.5359375 -27.3303125 96.5359375 -28.6875 96.0625 C-31.55411053 94.74540868 -31.71726817 93.80597589 -33 91 C-33.86625 90.154375 -34.7325 89.30875 -35.625 88.4375 C-38 86 -38 86 -38 83 C-38.66 82.67 -39.32 82.34 -40 82 C-40 81.01 -40 80.02 -40 79 C-40.66 78.34 -41.32 77.68 -42 77 C-41.505 76.01 -41.505 76.01 -41 75 C-41.66 74.67 -42.32 74.34 -43 74 C-42.505 73.505 -42.505 73.505 -42 73 C-42.23828729 71.36603 -42.47988589 69.73247348 -42.73828125 68.1015625 C-43.42280291 62.60495576 -43.14629824 57.4039774 -42 52 C-42.33 51.34 -42.66 50.68 -43 50 C-42.01 49.505 -42.01 49.505 -41 49 C-41.33 48.34 -41.66 47.68 -42 47 C-41.34 46.34 -40.68 45.68 -40 45 C-39.35232207 42.42938689 -39.35232207 42.42938689 -39 40 C-38.34 40 -37.68 40 -37 40 C-36.67 38.35 -36.34 36.7 -36 35 C-35.34 35 -34.68 35 -34 35 C-34 34.01 -34 33.02 -34 32 C-33.34 32 -32.68 32 -32 32 C-32 31.01 -32 30.02 -32 29 C-31.34 28.34 -30.68 27.68 -30 27 C-28.98594743 25.67732273 -27.98731742 24.34275169 -27 23 C-26 21.66666667 -25 20.33333333 -24 19 C-23.525625 18.29875 -23.05125 17.5975 -22.5625 16.875 C-20.86479834 14.83775801 -19.42859257 14.00493486 -17 13 C-17.33 12.01 -17.66 11.02 -18 10 C-16.68 9.67 -15.36 9.34 -14 9 C-14.33 8.01 -14.66 7.02 -15 6 C-14.01 6 -13.02 6 -12 6 C-11.67 5.01 -11.34 4.02 -11 3 C-8.34966568 -1.2093545 -4.47053684 -0.21986247 0 0 Z " fill="#FAFCFE" transform="translate(48,0)"/>
<path d="M0 0 C2.75 -0.25 2.75 -0.25 6 0 C8.96988568 2.52525788 10.82483817 5.1671975 12.6875 8.5625 C14.92924206 12.4167232 17.37022533 15.78459166 20.25 19.1875 C33.30710019 34.75897421 42.17875414 49.19717224 41 70 C39.17168198 80.4276104 31.9669358 91.31971122 23.75 97.875 C17.42993752 101.70868131 9.09632835 100.36288043 2 100 C2 99.67 2 99.34 2 99 C2.75023437 98.85304688 3.50046875 98.70609375 4.2734375 98.5546875 C15.94713915 95.99647077 23.63901354 91.94288274 30.37109375 81.8515625 C35.78018381 72.38241203 36.66416587 61.4885114 33.9375 50.9375 C29.85706532 39.34535603 22.13061236 30.07976379 14.6015625 20.578125 C11.18600761 16.26238898 7.87932055 11.87574971 4.625 7.4375 C3.91972168 6.48170044 3.91972168 6.48170044 3.20019531 5.5065918 C0 1.12606628 0 1.12606628 0 0 Z " fill="#F5F9FE" transform="translate(51,0)"/>
<path d="M0 0 C0.92041016 2.03198242 0.92041016 2.03198242 1 5 C-0.87863647 7.83712551 -3.30103119 10.11651561 -5.7265625 12.48828125 C-6.42639252 13.19147995 -7.12622253 13.89467865 -7.84725952 14.6191864 C-9.331495 16.10312276 -10.82323306 17.57958696 -12.32177734 19.04907227 C-14.6145658 21.30224608 -16.87664233 23.58320802 -19.13671875 25.86914062 C-20.58158519 27.30644698 -22.02814554 28.74205293 -23.4765625 30.17578125 C-24.49249985 31.20219475 -24.49249985 31.20219475 -25.52896118 32.24934387 C-26.17247528 32.87386948 -26.81598938 33.49839508 -27.47900391 34.1418457 C-28.03939362 34.69524124 -28.59978333 35.24863678 -29.17715454 35.81880188 C-31.5498735 37.3563163 -33.22926866 37.21708865 -36 37 C-36.92041016 34.96801758 -36.92041016 34.96801758 -37 32 C-35.12136353 29.16287449 -32.69896881 26.88348439 -30.2734375 24.51171875 C-29.57360748 23.80852005 -28.87377747 23.10532135 -28.15274048 22.3808136 C-26.668505 20.89687724 -25.17676694 19.42041304 -23.67822266 17.95092773 C-21.3854342 15.69775392 -19.12335767 13.41679198 -16.86328125 11.13085938 C-15.41841481 9.69355302 -13.97185446 8.25794707 -12.5234375 6.82421875 C-11.84614594 6.13994308 -11.16885437 5.45566742 -10.47103882 4.75065613 C-9.50576767 3.81386772 -9.50576767 3.81386772 -8.52099609 2.8581543 C-7.96060638 2.30475876 -7.40021667 1.75136322 -6.82284546 1.18119812 C-4.4501265 -0.3563163 -2.77073134 -0.21708865 0 0 Z " fill="#E7F0F9" transform="translate(68,44)"/>
<path d="M0 0 C3.03978021 0.68164768 4.80055419 2.23591662 6.93359375 4.43359375 C8.38507278 7.3365518 8.305984 9.20621154 7.93359375 12.43359375 C5.44886541 16.42421806 3.96610411 18.1201531 -0.56640625 19.49609375 C-4.46526979 19.42647119 -6.05062876 18.84621574 -9.06640625 16.43359375 C-11.52860397 12.74029717 -11.85839308 9.71865935 -11.06640625 5.43359375 C-8.02199963 0.86698383 -5.28619941 -0.32976291 0 0 Z " fill="#EEF4F9" transform="translate(61.06640625,68.56640625)"/>
<path d="M0 0 C3.66182182 2.64897749 4.84097547 4.01051403 5.5625 8.5 C4.91877781 12.50538252 3.84054174 14.15945826 1 17 C-2.10048928 18.55024464 -4.57894218 18.28992015 -8 18 C-10.75329021 16.20437595 -12.52627461 14.94745078 -14 12 C-14.40417552 9.03604618 -14.56382171 6.91095074 -12.953125 4.30859375 C-8.66744425 -0.92245776 -6.57621564 -1.56045795 0 0 Z " fill="#EFF4F9" transform="translate(45,38)"/>
<path d="M0 0 C2.0625 0.4375 2.0625 0.4375 4 1 C4 2.32 4 3.64 4 5 C2.68 5.33 1.36 5.66 0 6 C-0.38218767 4.34385343 -0.71395102 2.67542976 -1 1 C-0.67 0.67 -0.34 0.34 0 0 Z " fill="#359EF3" transform="translate(39,44)"/>
<path d="M0 0 C1.98 0.495 1.98 0.495 4 1 C3.67 2.65 3.34 4.3 3 6 C1.68 5.67 0.36 5.34 -1 5 C-0.67 3.35 -0.34 1.7 0 0 Z " fill="#2D9AF3" transform="translate(58,75)"/>
<path d="" fill="#FFFFFF" transform="translate(0,0)"/>
<path d="" fill="#FFFFFF" transform="translate(0,0)"/>
<path d="M0 0 C2 1 2 1 2 1 Z " fill="#FFFFFF" transform="translate(65,6)"/>
<path d="" fill="#FFFFFF" transform="translate(0,0)"/>
<path d="" fill="#FFFFFF" transform="translate(0,0)"/>
<path d="" fill="#FFFFFF" transform="translate(0,0)"/>
<path d="" fill="#FFFFFF" transform="translate(0,0)"/>
<path d="" fill="#FFFFFF" transform="translate(0,0)"/>
<path d="" fill="#FFFFFF" transform="translate(0,0)"/>
<path d="" fill="#FFFFFF" transform="translate(0,0)"/>
<path d="" fill="#FFFFFF" transform="translate(0,0)"/>
<path d="" fill="#FFFFFF" transform="translate(0,0)"/>
<path d="" fill="#FFFFFF" transform="translate(0,0)"/>
<path d="" fill="#FFFFFF" transform="translate(0,0)"/>
<path d="" fill="#FFFFFF" transform="translate(0,0)"/>
<path d="" fill="#FFFFFF" transform="translate(0,0)"/>
<path d="" fill="#FFFFFF" transform="translate(0,0)"/>
<path d="" fill="#FFFFFF" transform="translate(0,0)"/>
<path d="" fill="#FFFFFF" transform="translate(0,0)"/>
<path d="" fill="#FFFFFF" transform="translate(0,0)"/>
<path d="" fill="#FFFFFF" transform="translate(0,0)"/>
<path d="" fill="#FFFFFF" transform="translate(0,0)"/>
<path d="" fill="#FFFFFF" transform="translate(0,0)"/>
<path d="" fill="#FFFFFF" transform="translate(0,0)"/>
<path d="" fill="#FFFFFF" transform="translate(0,0)"/>
<path d="" fill="#FFFFFF" transform="translate(0,0)"/>
<path d="" fill="#FFFFFF" transform="translate(0,0)"/>
<path d="" fill="#FFFFFF" transform="translate(0,0)"/>
<path d="" fill="#FFFFFF" transform="translate(0,0)"/>
<path d="" fill="#FFFFFF" transform="translate(0,0)"/>
<path d="" fill="#FFFFFF" transform="translate(0,0)"/>
<path d="" fill="#FFFFFF" transform="translate(0,0)"/>
</svg>
