<?xml version="1.0" encoding="UTF-8"?>
<svg version="1.1" xmlns="http://www.w3.org/2000/svg" width="100" height="100">
<path d="M0 0 C5.91292487 3.62838571 9.48438737 9.76210028 12.375 15.9375 C13.26058189 20.27685124 13.35745443 24.58585344 13 29 C11.26932301 30.73067699 8.93511196 30.12756529 6.578125 30.12939453 C5.42022461 30.13254669 4.26232422 30.13569885 3.06933594 30.13894653 C1.17876465 30.13591019 1.17876465 30.13591019 -0.75 30.1328125 C-2.03358398 30.13376923 -3.31716797 30.13472595 -4.63964844 30.13571167 C-7.36003824 30.13718831 -10.08039525 30.13503519 -12.80078125 30.13037109 C-16.29484669 30.12467381 -19.78883533 30.12795299 -23.28289795 30.13394356 C-26.60527153 30.13841754 -29.92762423 30.13528885 -33.25 30.1328125 C-34.51038086 30.13483673 -35.77076172 30.13686096 -37.06933594 30.13894653 C-38.22723633 30.13579437 -39.38513672 30.13264221 -40.578125 30.12939453 C-41.60325195 30.12859894 -42.62837891 30.12780334 -43.68457031 30.12698364 C-46 30 -46 30 -47 29 C-48.05754053 20.41831868 -45.77080899 13.51539243 -41.3125 6.25 C-29.84483442 -4.90772867 -14.3024129 -7.84855163 0 0 Z " fill="#F5CB28" transform="translate(67,34)"/>
<path d="M0 0 C5.91292487 3.62838571 9.48438737 9.76210028 12.375 15.9375 C13.26571408 20.30199899 13.15785838 24.5624256 13 29 C12.01 29 11.02 29 10 29 C9.91363281 28.23816406 9.82726562 27.47632812 9.73828125 26.69140625 C8.65209227 18.709412 7.24045561 11.57860592 0.84765625 6.18359375 C-6.91088497 0.8261984 -13.54343724 -1.15266561 -23 0 C-30.99574528 2.67261099 -37.05475609 7.35507183 -41.15234375 14.8203125 C-42.91194424 19.34499948 -43.40179077 24.20645498 -44 29 C-44.99 29 -45.98 29 -47 29 C-47.66942315 20.26030887 -45.89022229 13.70999188 -41.3125 6.25 C-29.84483442 -4.90772867 -14.3024129 -7.84855163 0 0 Z " fill="#3A3934" transform="translate(67,34)"/>
<path d="M0 0 C19.14 0 38.28 0 58 0 C58.495 1.98 58.495 1.98 59 4 C56.41707089 5.29146455 54.55613757 5.12705706 51.6640625 5.12939453 C49.992229 5.13412277 49.992229 5.13412277 48.28662109 5.13894653 C47.07828613 5.1369223 45.86995117 5.13489807 44.625 5.1328125 C43.38959473 5.13376923 42.15418945 5.13472595 40.88134766 5.13571167 C37.59413916 5.13656804 34.30697764 5.13253344 31.01977539 5.12695312 C29.00210059 5.12500203 26.98446928 5.12694592 24.96679688 5.13037109 C21.10284387 5.13652992 17.23895565 5.13580484 13.375 5.1328125 C11.56249756 5.13584885 11.56249756 5.13584885 9.71337891 5.13894653 C8.59882324 5.13579437 7.48426758 5.13264221 6.3359375 5.12939453 C5.35157715 5.12859894 4.3672168 5.12780334 3.35302734 5.12698364 C1 5 1 5 -1 4 C-0.67 2.68 -0.34 1.36 0 0 Z " fill="#666563" transform="translate(21,66)"/>
<path d="M0 0 C17.16 0 34.32 0 52 0 C52 1.32 52 2.64 52 4 C34.84 4 17.68 4 0 4 C0 2.68 0 1.36 0 0 Z " fill="#464644" transform="translate(24,73)"/>
<path d="M0 0 C14.85 0 29.7 0 45 0 C45 1.32 45 2.64 45 4 C30.48 4 15.96 4 1 4 C0.67 2.68 0.34 1.36 0 0 Z " fill="#424242" transform="translate(28,80)"/>
<path d="M0 0 C9.24 0 18.48 0 28 0 C28.33 1.32 28.66 2.64 29 4 C26.30734639 5.3463268 24.19885751 5.12962636 21.1875 5.1328125 C20.02992187 5.13410156 18.87234375 5.13539062 17.6796875 5.13671875 C16.46539062 5.13285156 15.25109375 5.12898438 14 5.125 C12.78570312 5.12886719 11.57140625 5.13273437 10.3203125 5.13671875 C8.58394531 5.13478516 8.58394531 5.13478516 6.8125 5.1328125 C5.21341797 5.13112061 5.21341797 5.13112061 3.58203125 5.12939453 C1 5 1 5 -1 4 C-0.67 2.68 -0.34 1.36 0 0 Z " fill="#666564" transform="translate(36,86)"/>
<path d="M0 0 C3.81684226 1.55500981 6.19195732 4.03595495 9 7 C8.67 7.99 8.34 8.98 8 10 C6.02 8.68 4.04 7.36 2 6 C2 9.3 2 12.6 2 16 C1.34 16 0.68 16 0 16 C0 12.7 0 9.4 0 6 C-0.78375 6.66 -1.5675 7.32 -2.375 8 C-5 10 -5 10 -7 10 C-6.42424336 6.64749299 -5.40693737 5.06181371 -2.9375 2.75 C-2.38964844 2.22921875 -1.84179688 1.7084375 -1.27734375 1.171875 C-0.64505859 0.59179688 -0.64505859 0.59179688 0 0 Z " fill="#120F02" transform="translate(49,45)"/>
<path d="M0 0 C0.99 0.33 1.98 0.66 3 1 C2.67 2.32 2.34 3.64 2 5 C1.34 5 0.68 5 0 5 C-0.66 6.32 -1.32 7.64 -2 9 C-2.66 9 -3.32 9 -4 9 C-4.2475 9.639375 -4.495 10.27875 -4.75 10.9375 C-6 13 -6 13 -8.125 13.75 C-9.053125 13.87375 -9.053125 13.87375 -10 14 C-10.33 13.01 -10.66 12.02 -11 11 C-9.70703125 9.0625 -9.70703125 9.0625 -7.8125 7 C-7.20019531 6.319375 -6.58789062 5.63875 -5.95703125 4.9375 C-4.04671732 3.04625108 -2.2981297 1.40006299 0 0 Z " fill="#60605F" transform="translate(84,23)"/>
<path d="M0 0 C5.169545 1.40987591 8.75341352 4.86322045 12 9 C12.703125 11.2265625 12.703125 11.2265625 13 13 C12.01 13.33 11.02 13.66 10 14 C7.8125 12.6875 7.8125 12.6875 6 11 C6 10.34 6 9.68 6 9 C4.68 8.34 3.36 7.68 2 7 C2 6.34 2 5.68 2 5 C1.34 5 0.68 5 0 5 C-0.5625 3.0625 -0.5625 3.0625 -1 1 C-0.67 0.67 -0.34 0.34 0 0 Z " fill="#61605F" transform="translate(14,23)"/>
<path d="M0 0 C5.61 0 11.22 0 17 0 C16.67 1.32 16.34 2.64 16 4 C11.05 4 6.1 4 1 4 C0.67 2.68 0.34 1.36 0 0 Z " fill="#464646" transform="translate(83,60)"/>
<path d="M0 0 C5.61 0 11.22 0 17 0 C16.67 1.32 16.34 2.64 16 4 C11.05 4 6.1 4 1 4 C0.67 2.68 0.34 1.36 0 0 Z " fill="#464646" transform="translate(0,60)"/>
<path d="M0 0 C1.32 0 2.64 0 4 0 C4 5.28 4 10.56 4 16 C2.68 16 1.36 16 0 16 C0 10.72 0 5.44 0 0 Z " fill="#52514C" transform="translate(48,10)"/>
<path d="M0 0 C4.62 0 9.24 0 14 0 C13.67 1.32 13.34 2.64 13 4 C7.72 4 2.44 4 -3 4 C-2.67 3.34 -2.34 2.68 -2 2 C-1.34 2 -0.68 2 0 2 C0 1.34 0 0.68 0 0 Z " fill="#272726" transform="translate(43,30)"/>
<path d="M0 0 C-0.33 4.29 -0.66 8.58 -1 13 C-1.99 13 -2.98 13 -4 13 C-4.08121924 11.39667209 -4.13929134 9.79215974 -4.1875 8.1875 C-4.22230469 7.29417969 -4.25710937 6.40085937 -4.29296875 5.48046875 C-4 3 -4 3 -2.55078125 1.17578125 C-1 0 -1 0 0 0 Z " fill="#22211E" transform="translate(24,50)"/>
<path d="M0 0 C0.66 0.66 1.32 1.32 2 2 C1.67028521 5.29714793 1.3773161 6.6226839 -1 9 C-1.99 9.33 -2.98 9.66 -4 10 C-3.43454163 6.04179141 -2.19097652 3.3340947 0 0 Z " fill="#4D4C46" transform="translate(25,42)"/>
<path d="M0 0 C0.66 0.33 1.32 0.66 2 1 C-0.97 3.97 -3.94 6.94 -7 10 C-7 7 -7 7 -4.625 4.4375 C-3.75875 3.633125 -2.8925 2.82875 -2 2 C-1.34 1.34 -0.68 0.68 0 0 Z " fill="#D7B11B" transform="translate(35,37)"/>
<path d="M0 0 C0.33 0.99 0.66 1.98 1 3 C-1.3125 5.5 -1.3125 5.5 -4 8 C-4.99 8 -5.98 8 -7 8 C-7 7.34 -7 6.68 -7 6 C-5.46875 4.4921875 -5.46875 4.4921875 -3.5 2.875 C-2.8503125 2.33617187 -2.200625 1.79734375 -1.53125 1.2421875 C-1.0259375 0.83226562 -0.520625 0.42234375 0 0 Z " fill="#0D0B02" transform="translate(33,36)"/>
</svg>
