<?xml version="1.0" encoding="UTF-8"?>
<svg version="1.1" xmlns="http://www.w3.org/2000/svg" width="100" height="100">
<path d="M0 0 C8.66088161 6.47529863 13.86483018 14.32092294 16.75 24.75 C16.91071705 27.50125794 16.98586033 30.13118774 16.9375 32.875 C16.9365332 33.92880859 16.9365332 33.92880859 16.93554688 35.00390625 C16.90595037 38.48313975 16.60009631 41.34961478 15.75 44.75 C19.71 45.08 23.67 45.41 27.75 45.75 C27.75 46.74 27.75 47.73 27.75 48.75 C-5.25 48.75 -38.25 48.75 -72.25 48.75 C-72.25 47.76 -72.25 46.77 -72.25 45.75 C-66.31 45.255 -66.31 45.255 -60.25 44.75 C-60.58 43.43 -60.91 42.11 -61.25 40.75 C-62.13449647 27.74355187 -60.91163068 17.18375786 -52.23828125 6.8203125 C-38.29922412 -7.69383343 -17.22791261 -11.40836475 0 0 Z " fill="#FDDE30" transform="translate(72.25,22.25)"/>
<path d="M0 0 C8.66942221 6.481684 13.84824863 14.31870414 16.75 24.75 C16.9356511 27.48289335 17.03054855 30.08604149 17 32.8125 C17.01160156 33.85374023 17.01160156 33.85374023 17.0234375 34.91601562 C17.00804344 38.96850071 16.54057813 42.10489452 14.75 45.75 C12.11 45.75 9.47 45.75 6.75 45.75 C6.90726562 44.90953125 7.06453125 44.0690625 7.2265625 43.203125 C8.81758472 32.70712765 8.76427285 23.72782759 2.75 14.75 C2.151875 13.821875 1.55375 12.89375 0.9375 11.9375 C-3.49419757 7.50580243 -9.08829604 4.06100084 -15.25 2.75 C-22.20683236 2.88378524 -28.77205965 5.83564913 -34.08203125 10.28515625 C-41.71999912 18.46454969 -42.77905924 27.51109346 -42.48828125 38.2109375 C-42.34721915 41.86210394 -42.34721915 41.86210394 -41.25 45.75 C-47.19 45.75 -53.13 45.75 -59.25 45.75 C-62.59588667 37.38528332 -62.52332297 27.41733622 -59.6875 18.8125 C-55.37357555 8.75170416 -47.53270025 0.41152533 -37.5 -4.125 C-24.83467457 -8.50915111 -11.17582023 -7.40065477 0 0 Z " fill="#FDB84B" transform="translate(72.25,22.25)"/>
<path d="M0 0 C-2.60066536 1.73377691 -4.98056879 2.91291345 -7.8125 4.1875 C-15.28066506 7.92701788 -19.41615332 13.16243157 -22.31640625 20.97265625 C-23.98319473 28.35414808 -23.82636238 36.69455049 -22 44 C-25.3 44 -28.6 44 -32 44 C-35.10168954 35.75766166 -35.35816758 26.40347273 -32.1015625 18.125 C-27.6144619 9.46903288 -21.59463122 4.13613192 -12.5625 0.6875 C-8.31060958 -0.13304026 -4.31277398 -0.17603159 0 0 Z " fill="#FDD304" transform="translate(53,24)"/>
<path d="M0 0 C6.93359375 -0.09765625 6.93359375 -0.09765625 9 0 C10 1 10 1 10.09765625 4.16015625 C10.08605469 5.44792969 10.07445313 6.73570313 10.0625 8.0625 C10.05347656 9.35285156 10.04445313 10.64320312 10.03515625 11.97265625 C10.02355469 12.97167969 10.01195313 13.97070312 10 15 C11.98 15 13.96 15 16 15 C15.67900526 17.88895266 14.75959041 19.34122652 13.0625 21.75 C9.30821975 24.50824672 7.02167374 24.78121235 2.44921875 24.5625 C-1.80975651 23.58436214 -3.42218466 21.45969954 -6 18 C-6 17.01 -6 16.02 -6 15 C-4.02 15 -2.04 15 0 15 C0 10.05 0 5.1 0 0 Z " fill="#F37F79" transform="translate(45,44)"/>
<path d="M0 0 C33 0 66 0 100 0 C100 0.99 100 1.98 100 3 C67 3 34 3 0 3 C0 2.01 0 1.02 0 0 Z " fill="#7BDCE9" transform="translate(0,68)"/>
<path d="M0 0 C11.22 0 22.44 0 34 0 C34 0.99 34 1.98 34 3 C22.78 3 11.56 3 0 3 C0 2.01 0 1.02 0 0 Z " fill="#ACE8F1" transform="translate(33,85)"/>
<path d="M0 0 C8.25 0 16.5 0 25 0 C25 0.99 25 1.98 25 3 C16.75 3 8.5 3 0 3 C0 2.01 0 1.02 0 0 Z " fill="#B3EAF2" transform="translate(13,75)"/>
<path d="M0 0 C8.25 0 16.5 0 25 0 C25 0.99 25 1.98 25 3 C16.75 3 8.5 3 0 3 C0 2.01 0 1.02 0 0 Z " fill="#B2EAF2" transform="translate(62,75)"/>
<path d="M0 0 C4.10447392 0.51776621 5.95699523 2.64627444 8.75 5.5625 C9.94882812 6.80193359 9.94882812 6.80193359 11.171875 8.06640625 C11.77515625 8.70449219 12.3784375 9.34257812 13 10 C12.67 10.66 12.34 11.32 12 12 C8.20405883 11.43573848 6.41289367 9.81748138 3.75 7.125 C3.04359375 6.42632812 2.3371875 5.72765625 1.609375 5.0078125 C0 3 0 3 0 0 Z " fill="#FED08B" transform="translate(8,10)"/>
<path d="M0 0 C-0.56426152 3.79594117 -2.18251862 5.58710633 -4.875 8.25 C-5.57367188 8.95640625 -6.27234375 9.6628125 -6.9921875 10.390625 C-9 12 -9 12 -12 12 C-11.43573848 8.20405883 -9.81748138 6.41289367 -7.125 3.75 C-6.07699219 2.69039062 -6.07699219 2.69039062 -5.0078125 1.609375 C-3 0 -3 0 0 0 Z " fill="#FECF89" transform="translate(92,10)"/>
<path d="M0 0 C3.96 0 7.92 0 12 0 C12 0.99 12 1.98 12 3 C8.04 3 4.08 3 0 3 C0 2.01 0 1.02 0 0 Z " fill="#D8F3F7" transform="translate(44,95)"/>
<path d="M0 0 C0.99 0.33 1.98 0.66 3 1 C3 3.31 3 5.62 3 8 C1.68 8 0.36 8 -1 8 C-1.04241723 5.66705225 -1.04092937 3.33297433 -1 1 C-0.67 0.67 -0.34 0.34 0 0 Z " fill="#FEE6C2" transform="translate(49,2)"/>
<path d="M0 0 C0.99 0.33 1.98 0.66 3 1 C2.01 3.31 1.02 5.62 0 8 C-0.99 8 -1.98 8 -3 8 C-2.45276317 4.62537285 -1.9451 2.91765 0 0 Z " fill="#FEE1B8" transform="translate(69,6)"/>
<path d="M0 0 C3 1 3 1 4.1875 2.875 C5 5 5 5 5 8 C3.68 7.67 2.36 7.34 1 7 C0.67 4.69 0.34 2.38 0 0 Z " fill="#FEE1B6" transform="translate(29,6)"/>
<path d="M0 0 C0 0.99 0 1.98 0 3 C-1.98 3 -3.96 3 -6 3 C-6.33 2.01 -6.66 1.02 -7 0 C-4.3333581 -1.33332095 -2.83319697 -0.67102033 0 0 Z " fill="#FEE5BF" transform="translate(7,51)"/>
<path d="M0 0 C0 0.99 0 1.98 0 3 C-2.64738916 4.4606285 -3.89448334 5 -7 5 C-6.625 3.0625 -6.625 3.0625 -6 1 C-4 0 -4 0 0 0 Z " fill="#FDCDA1" transform="translate(96,30)"/>
<path d="M0 0 C2.97 0.495 2.97 0.495 6 1 C5.67 1.99 5.34 2.98 5 4 C3.02 4 1.04 4 -1 4 C-0.67 2.68 -0.34 1.36 0 0 Z " fill="#FEE4BE" transform="translate(94,50)"/>
<path d="M0 0 C1.67542976 0.28604898 3.34385343 0.61781233 5 1 C5.33 2.32 5.66 3.64 6 5 C3.625 4.6875 3.625 4.6875 1 4 C0.34 3.01 -0.32 2.02 -1 1 C-0.67 0.67 -0.34 0.34 0 0 Z " fill="#FEE2BA" transform="translate(5,30)"/>
</svg>
