<?xml version="1.0" encoding="UTF-8"?>
<svg version="1.1" xmlns="http://www.w3.org/2000/svg" width="100" height="100">
<path d="M0 0 C2.43119623 1.87015094 3.64069173 3.28138345 5 6 C5.08337025 7.60792846 5.10435309 9.21928911 5.09423828 10.8293457 C5.09158966 11.83411453 5.08894104 12.83888336 5.08621216 13.87409973 C5.08096527 14.96365463 5.07571838 16.05320953 5.0703125 17.17578125 C5.07889686 19.47071071 5.08937282 21.76563373 5.1015625 24.06054688 C5.11826899 27.68855857 5.12498156 31.31513622 5.09960938 34.94311523 C5.07867052 38.43823844 5.10186258 41.93078161 5.1328125 45.42578125 C5.11542023 46.50926346 5.09802795 47.59274567 5.08010864 48.70906067 C5.0060968 54.14682374 5.0060968 54.14682374 7.53265381 58.70150757 C9.35554474 60.02510002 9.35554474 60.02510002 11.26730347 60.96525574 C14.88484858 63.12560752 16.31467644 67.17247051 17.75 71 C18.75033145 79.00265157 17.25482423 84.64997543 12.8125 91.25 C7.66474695 96.28335854 3.24188693 98.22603202 -4 98.5 C-10.5128287 98.23751824 -15.19138242 96.94654076 -19.75 92.1640625 C-24.51073493 86.19025569 -26.66698675 80.7370463 -26 73 C-24.67079991 67.91605223 -22.69856096 63.80734217 -19 60 C-18.1443042 59.69312256 -17.2886084 59.38624512 -16.40698242 59.07006836 C-13.82299216 57.2722569 -13.82299216 57.2722569 -13.5362854 54.78811646 C-13.35472215 51.74655193 -13.33468503 48.7383358 -13.36328125 45.69140625 C-13.35290329 44.5731395 -13.34252533 43.45487274 -13.33183289 42.30271912 C-13.30206595 38.7223358 -13.30553828 35.14298514 -13.3125 31.5625 C-13.30361427 27.98587533 -13.28767208 24.40952944 -13.2610321 20.83299255 C-13.24609365 18.60604013 -13.24232742 16.37897917 -13.25080872 14.1519928 C-13.24707748 13.14091965 -13.24334625 12.1298465 -13.23950195 11.08813477 C-13.24125931 10.2000563 -13.24301666 9.31197784 -13.24482727 8.39698792 C-12.97652209 5.77013888 -12.43352662 4.20921259 -11 2 C-7.33218328 -0.44521115 -4.26546767 -0.72237759 0 0 Z " fill="#EE5765" transform="translate(54,1)"/>
<path d="M0 0 C2.43119623 1.87015094 3.64069173 3.28138345 5 6 C5.08337025 7.60792846 5.10435309 9.21928911 5.09423828 10.8293457 C5.09158966 11.83411453 5.08894104 12.83888336 5.08621216 13.87409973 C5.08096527 14.96365463 5.07571838 16.05320953 5.0703125 17.17578125 C5.07889686 19.47071071 5.08937282 21.76563373 5.1015625 24.06054688 C5.11826899 27.68855857 5.12498156 31.31513622 5.09960938 34.94311523 C5.07867052 38.43823844 5.10186258 41.93078161 5.1328125 45.42578125 C5.11542023 46.50926346 5.09802795 47.59274567 5.08010864 48.70906067 C5.0060968 54.14682374 5.0060968 54.14682374 7.53265381 58.70150757 C9.35554474 60.02510002 9.35554474 60.02510002 11.26730347 60.96525574 C14.88484858 63.12560752 16.31467644 67.17247051 17.75 71 C18.75033145 79.00265157 17.25482423 84.64997543 12.8125 91.25 C7.66474695 96.28335854 3.24188693 98.22603202 -4 98.5 C-10.5128287 98.23751824 -15.19138242 96.94654076 -19.75 92.1640625 C-24.51073493 86.19025569 -26.66698675 80.7370463 -26 73 C-24.67079991 67.91605223 -22.69856096 63.80734217 -19 60 C-18.1443042 59.69312256 -17.2886084 59.38624512 -16.40698242 59.07006836 C-13.82299216 57.2722569 -13.82299216 57.2722569 -13.5362854 54.78811646 C-13.35472215 51.74655193 -13.33468503 48.7383358 -13.36328125 45.69140625 C-13.35290329 44.5731395 -13.34252533 43.45487274 -13.33183289 42.30271912 C-13.30206595 38.7223358 -13.30553828 35.14298514 -13.3125 31.5625 C-13.30361427 27.98587533 -13.28767208 24.40952944 -13.2610321 20.83299255 C-13.24609365 18.60604013 -13.24232742 16.37897917 -13.25080872 14.1519928 C-13.24707748 13.14091965 -13.24334625 12.1298465 -13.23950195 11.08813477 C-13.24125931 10.2000563 -13.24301666 9.31197784 -13.24482727 8.39698792 C-12.97652209 5.77013888 -12.43352662 4.20921259 -11 2 C-7.33218328 -0.44521115 -4.26546767 -0.72237759 0 0 Z M-6 5 C-8.22220188 6.80260164 -8.22220188 6.80260164 -8.24050903 9.29055786 C-8.23606781 10.24542084 -8.23162659 11.20028381 -8.22705078 12.18408203 C-8.22689972 13.26505157 -8.22674866 14.34602112 -8.22659302 15.45974731 C-8.21627045 16.63060883 -8.20594788 17.80147034 -8.1953125 19.0078125 C-8.1924826 20.20356903 -8.18965271 21.39932556 -8.18673706 22.63131714 C-8.17551305 26.46264519 -8.15040431 30.29374222 -8.125 34.125 C-8.11497308 36.71744455 -8.10584673 39.30989275 -8.09765625 41.90234375 C-8.07556646 48.26830842 -8.04206706 54.63413771 -8 61 C-8.59554687 61.11730469 -9.19109375 61.23460937 -9.8046875 61.35546875 C-13.76919722 62.51942623 -16.98855611 65.37555982 -19.16015625 68.86328125 C-21.11801183 73.8444301 -20.56325235 79.34153476 -18.875 84.3125 C-15.99644284 88.43843192 -12.86637047 91.37787651 -8 93 C-2.77578811 93.81402907 0.99683648 93.47451317 5.375 90.375 C9.36864905 86.95414524 11.61846371 83.95569885 12.30859375 78.609375 C12.59054075 72.90208421 11.96247603 69.37957878 8 65 C4.37941624 61.99491262 4.37941624 61.99491262 0 61 C0.00666183 59.99188766 0.00666183 59.99188766 0.01345825 58.96340942 C0.05759634 51.98848592 0.08782667 45.01360187 0.10986328 38.03857422 C0.11994064 35.43308909 0.1336027 32.82761531 0.15087891 30.22216797 C0.17505102 26.48402101 0.1864656 22.74602315 0.1953125 19.0078125 C0.20563507 17.83695099 0.21595764 16.66608948 0.22659302 15.45974731 C0.22674408 14.37877777 0.22689514 13.29780823 0.22705078 12.18408203 C0.23371262 10.75178757 0.23371262 10.75178757 0.24050903 9.29055786 C0.22220188 6.80260164 0.22220188 6.80260164 -2 5 C-3.32 5 -4.64 5 -6 5 Z " fill="#DCE0E9" transform="translate(54,1)"/>
<path d="M0 0 C2.54563057 0.96558401 3.94635204 1.93868805 5.75 4 C8.0253144 9.46075456 7.75970383 14.84084175 5.8125 20.375 C3.13934684 24.24646319 -0.12747383 26.41831589 -4 29 C-8.38946126 29.6329373 -12.03762325 29.45172786 -16.0625 27.5625 C-16.701875 27.046875 -17.34125 26.53125 -18 26 C-18 25.67 -18 25.34 -18 25 C-17.13117187 24.93683594 -16.26234375 24.87367187 -15.3671875 24.80859375 C-7.55022302 24.14111443 -7.55022302 24.14111443 -1.25 19.9375 C1.5380477 15.89818992 2.2643642 11.85236229 2 7 C1.53181198 4.52269447 0.86196434 2.38307787 0 0 Z " fill="#DB334D" transform="translate(59,65)"/>
<path d="M0 0 C2.97 0 5.94 0 9 0 C8.67 0.99 8.34 1.98 8 3 C5.36 3 2.72 3 0 3 C0 2.01 0 1.02 0 0 Z " fill="#A5A9B5" transform="translate(63,24)"/>
<path d="M0 0 C2.97 0 5.94 0 9 0 C8.67 0.99 8.34 1.98 8 3 C5.36 3 2.72 3 0 3 C0 2.01 0 1.02 0 0 Z " fill="#ABAEB8" transform="translate(63,11)"/>
<path d="M0 0 C1.23556641 0.01740234 1.23556641 0.01740234 2.49609375 0.03515625 C3.32238281 0.04417969 4.14867188 0.05320313 5 0.0625 C5.63808594 0.07410156 6.27617188 0.08570313 6.93359375 0.09765625 C6.60359375 1.08765625 6.27359375 2.07765625 5.93359375 3.09765625 C2.55859375 3.22265625 2.55859375 3.22265625 -1.06640625 3.09765625 C-1.72640625 2.43765625 -2.38640625 1.77765625 -3.06640625 1.09765625 C-2.06640625 0.09765625 -2.06640625 0.09765625 0 0 Z " fill="#A3A6B2" transform="translate(65.06640625,49.90234375)"/>
<path d="M0 0 C1.98 0 3.96 0 6 0 C6 0.99 6 1.98 6 3 C4.02 3 2.04 3 0 3 C0 2.01 0 1.02 0 0 Z " fill="#A9ACB7" transform="translate(63,43)"/>
<path d="M0 0 C1.98 0 3.96 0 6 0 C6 0.99 6 1.98 6 3 C4.02 3 2.04 3 0 3 C0 2.01 0 1.02 0 0 Z " fill="#A7AAB6" transform="translate(63,30)"/>
<path d="M0 0 C1.98 0 3.96 0 6 0 C6 0.99 6 1.98 6 3 C4.02 3 2.04 3 0 3 C0 2.01 0 1.02 0 0 Z " fill="#A2A8B5" transform="translate(63,17)"/>
<path d="M0 0 C2.97 0 5.94 0 9 0 C9 0.66 9 1.32 9 2 C5.7 2 2.4 2 -1 2 C-0.67 1.34 -0.34 0.68 0 0 Z " fill="#82889A" transform="translate(63,37)"/>
</svg>
