<?xml version="1.0" encoding="UTF-8"?>
<svg version="1.1" xmlns="http://www.w3.org/2000/svg" width="100" height="100">
<path d="M0 0 C4.79016903 2.8779259 8.04971831 7.2428102 10.39453125 12.23828125 C11.70807427 19.0978948 10.65351089 23.92784063 7.95703125 30.17578125 C6.31312435 34.03836289 6.31312435 34.03836289 5.95703125 38.17578125 C6.72015625 38.25828125 7.48328125 38.34078125 8.26953125 38.42578125 C10.95703125 39.17578125 10.95703125 39.17578125 12.76953125 40.86328125 C14.35892084 43.95840834 14.51863124 45.73598132 13.95703125 49.17578125 C12.31728194 51.81296386 11.62636902 52.75465675 8.95703125 54.17578125 C4.27172587 54.92309126 -0.40557952 54.83089415 -5.13671875 54.76953125 C-6.53006894 54.76781882 -7.92342234 54.76788717 -9.31677246 54.76965332 C-12.23216724 54.7680026 -15.14679071 54.74935251 -18.06201172 54.71777344 C-21.79123145 54.67809548 -25.51944193 54.67372948 -29.2488327 54.68123627 C-32.12458474 54.68431187 -35.00011162 54.67216469 -37.87580872 54.65510559 C-39.25045865 54.64809491 -40.62513409 54.64494871 -41.99980164 54.64579773 C-43.9237675 54.64399188 -45.84767483 54.62029472 -47.77148438 54.59570312 C-48.86448853 54.58728394 -49.95749268 54.57886475 -51.08361816 54.57019043 C-55.03833303 54.04312349 -57.8846747 52.66501645 -60.35546875 49.48828125 C-61.58732356 45.34476961 -62.16386795 41.28788883 -60.09765625 37.39453125 C-58.10993688 34.84424979 -56.52372367 33.32458634 -53.41796875 32.36328125 C-50.90094986 31.44161959 -50.90094986 31.44161959 -50.34375 29.30859375 C-50.14136719 28.54289062 -49.93898438 27.7771875 -49.73046875 26.98828125 C-47.9594083 20.6776061 -43.54111456 17.22595181 -38.0234375 13.9921875 C-35.04385699 12.76391861 -32.22195075 13.05351271 -29.04296875 13.17578125 C-28.95015625 12.12390625 -28.95015625 12.12390625 -28.85546875 11.05078125 C-27.53223394 6.36856576 -25.05812245 3.42325735 -20.9921875 0.90625 C-13.90644965 -2.55707265 -7.39559653 -3.07785181 0 0 Z " fill="#21B7EC" transform="translate(69.04296875,29.82421875)"/>
<path d="M0 0 C4.79016903 2.8779259 8.04971831 7.2428102 10.39453125 12.23828125 C11.67267661 18.91304036 10.96706576 24.15571223 7.95703125 30.17578125 C5.76953125 33.17578125 5.76953125 33.17578125 3.95703125 35.17578125 C3.56515625 34.41265625 3.17328125 33.64953125 2.76953125 32.86328125 C0.7069442 29.80496252 -0.70033006 28.69516247 -4.04296875 27.17578125 C-5.21859375 27.07265625 -6.39421875 26.96953125 -7.60546875 26.86328125 C-11.04296875 26.17578125 -11.04296875 26.17578125 -12.98046875 23.42578125 C-13.66109375 22.35328125 -14.34171875 21.28078125 -15.04296875 20.17578125 C-19.28103401 16.80729742 -23.82069155 14.61190748 -29.04296875 13.17578125 C-28.62374408 8.42456831 -26.58560173 5.24718514 -23.04296875 2.17578125 C-15.59838034 -2.43277348 -8.19611635 -3.411007 0 0 Z " fill="#FDC314" transform="translate(69.04296875,29.82421875)"/>
<path d="M0 0 C0.78375 0.04125 1.5675 0.0825 2.375 0.125 C2.9375 2.0625 2.9375 2.0625 3.375 4.125 C2.375 5.125 2.375 5.125 -0.6875 5.1875 C-1.656875 5.166875 -2.62625 5.14625 -3.625 5.125 C-3.955 4.135 -4.285 3.145 -4.625 2.125 C-2.625 0.125 -2.625 0.125 0 0 Z " fill="#FFD55E" transform="translate(88.625,45.875)"/>
<path d="M0 0 C-0.33 1.32 -0.66 2.64 -1 4 C-2.98 4.33 -4.96 4.66 -7 5 C-6.625 2.5625 -6.625 2.5625 -6 0 C-3.50907189 -1.24546405 -2.58919267 -0.7767578 0 0 Z " fill="#FFD561" transform="translate(88,32)"/>
<path d="M0 0 C2.475 0.495 2.475 0.495 5 1 C5 2.65 5 4.3 5 6 C3.35 6.33 1.7 6.66 0 7 C0 4.69 0 2.38 0 0 Z " fill="#FFD560" transform="translate(57,16)"/>
<path d="M0 0 C2.2109885 0.42793326 3.98119242 0.99059621 6 2 C6 3.32 6 4.64 6 6 C3.03 5.505 3.03 5.505 0 5 C-0.5625 3.0625 -0.5625 3.0625 -1 1 C-0.67 0.67 -0.34 0.34 0 0 Z " fill="#FFD55E" transform="translate(82,60)"/>
<path d="M0 0 C2.375 0.25 2.375 0.25 5 1 C6.3125 3.0625 6.3125 3.0625 7 5 C5.35 5.33 3.7 5.66 2 6 C1.01 4.68 0.02 3.36 -1 2 C-0.67 1.34 -0.34 0.68 0 0 Z " fill="#FFD45B" transform="translate(31,31)"/>
<path d="M0 0 C2.0625 0.4375 2.0625 0.4375 4 1 C3.49396008 3.16874252 3.00016187 4.99967627 2 7 C0.68 7 -0.64 7 -2 7 C-1.125 1.125 -1.125 1.125 0 0 Z " fill="#FFD45B" transform="translate(73,20)"/>
<path d="M0 0 C1.32 0 2.64 0 4 0 C4.66 1.98 5.32 3.96 6 6 C4.68 6.33 3.36 6.66 2 7 C0 4 0 4 0 0 Z " fill="#FFD358" transform="translate(42,20)"/>
<path d="M0 0 C-1.49097658 3.7952131 -3.75700849 5.61042731 -7 8 C-4.18918919 0 -4.18918919 0 0 0 Z " fill="#FFD970" transform="translate(48,32)"/>
</svg>
