<?xml version="1.0" encoding="UTF-8"?>
<svg version="1.1" xmlns="http://www.w3.org/2000/svg" width="100" height="100">
<path d="M0 0 C1.93681161 -0.08107583 3.8745934 -0.13922475 5.8125 -0.1875 C6.89144531 -0.22230469 7.97039063 -0.25710937 9.08203125 -0.29296875 C12.34961576 0.03510198 12.97266159 0.56335667 15 3 C15.66 3 16.32 3 17 3 C17 3.99 17 4.98 17 6 C17.66 6 18.32 6 19 6 C19.33 5.01 19.66 4.02 20 3 C20 3.99 20 4.98 20 6 C20.66 6 21.32 6 22 6 C22 5.01 22 4.02 22 3 C22.66 3 23.32 3 24 3 C24.66 4.32 25.32 5.64 26 7 C26.99 6.67 27.98 6.34 29 6 C29.495 8.97 29.495 8.97 30 12 C30.66 12 31.32 12 32 12 C32 14.97 32 17.94 32 21 C32.66 21 33.32 21 34 21 C34.495 23.97 34.495 23.97 35 27 C35.66 27 36.32 27 37 27 C37.66 28.65 38.32 30.3 39 32 C38.34 32 37.68 32 37 32 C37.66 33.98 38.32 35.96 39 38 C38.34 38 37.68 38 37 38 C37 38.99 37 39.98 37 41 C37.66 41 38.32 41 39 41 C39 41.99 39 42.98 39 44 C38.34 44 37.68 44 37 44 C37 44.99 37 45.98 37 47 C36.34 47 35.68 47 35 47 C34.814375 48.11375 34.814375 48.11375 34.625 49.25 C34.04513299 51.80141485 33.26291261 53.7267573 32 56 C32.66 56 33.32 56 34 56 C37 61.625 37 61.625 37 65 C37.66 65 38.32 65 39 65 C39 65.66 39 66.32 39 67 C38.34 67 37.68 67 37 67 C37.66 68.98 38.32 70.96 39 73 C38.34 73 37.68 73 37 73 C36.87625 73.556875 36.7525 74.11375 36.625 74.6875 C35.94023145 77.22114364 35.00866237 79.57921032 34 82 C33.34 82 32.68 82 32 82 C32 82.99 32 83.98 32 85 C30.02 85.495 30.02 85.495 28 86 C28.2475 87.0828125 28.2475 87.0828125 28.5 88.1875 C28.97587119 90.86427545 29.077443 93.28949487 29 96 C26.525 96.495 26.525 96.495 24 97 C24 97.66 24 98.32 24 99 C23.34 99 22.68 99 22 99 C20.92474806 96.34771188 19.90543849 93.71631546 19 91 C18.34 91 17.68 91 17 91 C17 90.01 17 89.02 17 88 C16.34 88 15.68 88 15 88 C14.67 88.99 14.34 89.98 14 91 C14 90.01 14 89.02 14 88 C13.34 88 12.68 88 12 88 C11.67 88.99 11.34 89.98 11 91 C10.67 90.01 10.34 89.02 10 88 C9.34 88 8.68 88 8 88 C7.67 88.99 7.34 89.98 7 91 C7 90.01 7 89.02 7 88 C6.34 88 5.68 88 5 88 C4.67 88.99 4.34 89.98 4 91 C4 90.01 4 89.02 4 88 C3.34 88 2.68 88 2 88 C1.67 88.99 1.34 89.98 1 91 C-0.52448631 88.0173094 -1.93940067 85.181798 -3 82 C-3.66 82 -4.32 82 -5 82 C-5.33 82.99 -5.66 83.98 -6 85 C-6 84.01 -6 83.02 -6 82 C-6.66 82 -7.32 82 -8 82 C-8 82.99 -8 83.98 -8 85 C-8.66 85 -9.32 85 -10 85 C-11.5625 82.1875 -11.5625 82.1875 -13 79 C-12.67 78.01 -12.34 77.02 -12 76 C-10.68 76 -9.36 76 -8 76 C-7.67 75.01 -7.34 74.02 -7 73 C-6.34 72.01 -5.68 71.02 -5 70 C-2.75341797 69.65942383 -2.75341797 69.65942383 0.0078125 69.70703125 C0.99394531 69.71669922 1.98007812 69.72636719 2.99609375 69.73632812 C4.02863281 69.76146484 5.06117187 69.78660156 6.125 69.8125 C7.68541016 69.83280273 7.68541016 69.83280273 9.27734375 69.85351562 C11.85207627 69.88894772 14.4257833 69.93834779 17 70 C16.979375 69.195625 16.95875 68.39125 16.9375 67.5625 C17 65 17 65 18 64 C17.67 63.01 17.34 62.02 17 61 C15.515 61.495 15.515 61.495 14 62 C14 62.66 14 63.32 14 64 C13.34 64 12.68 64 12 64 C11.67 64.99 11.34 65.98 11 67 C9.23937836 63.67438135 8.89215772 62.40826005 9.875 58.6875 C10.24625 57.800625 10.6175 56.91375 11 56 C10.01 55.34 9.02 54.68 8 54 C7.67 54.66 7.34 55.32 7 56 C7 55.34 7 54.68 7 54 C6.34 54 5.68 54 5 54 C4.67 54.66 4.34 55.32 4 56 C3.67 55.34 3.34 54.68 3 54 C2.34 54.66 1.68 55.32 1 56 C0.01 56 -0.98 56 -2 56 C-2.495 54.515 -2.495 54.515 -3 53 C-3.66 53 -4.32 53 -5 53 C-5.33 53.99 -5.66 54.98 -6 56 C-8 53 -8 53 -8 50 C-8.66 50 -9.32 50 -10 50 C-10.33 48.02 -10.66 46.04 -11 44 C-11.66 44 -12.32 44 -13 44 C-13 43.01 -13 42.02 -13 41 C-12.34 41 -11.68 41 -11 41 C-11.66 40.01 -12.32 39.02 -13 38 C-13 37.01 -13 36.02 -13 35 C-12.34 35 -11.68 35 -11 35 C-11 34.01 -11 33.02 -11 32 C-11.66 32 -12.32 32 -13 32 C-12 29 -12 29 -10 26 C-10 25.34 -10 24.68 -10 24 C-9.34 23.67 -8.68 23.34 -8 23 C-8 22.34 -8 21.68 -8 21 C-7.34 21 -6.68 21 -6 21 C-6.66 20.01 -7.32 19.02 -8 18 C-8 17.01 -8 16.02 -8 15 C-7.34 15 -6.68 15 -6 15 C-5.9175 14.13375 -5.835 13.2675 -5.75 12.375 C-4.89008133 8.50536598 -3.28040293 6.20681662 -1 3 C-0.67 2.01 -0.34 1.02 0 0 Z M16 6 C17 8 17 8 17 8 Z M36 29 C37 31 37 31 37 31 Z M15 53 C15 53.99 15 54.98 15 56 C15.66 56 16.32 56 17 56 C16.67 55.01 16.34 54.02 16 53 C15.67 53 15.34 53 15 53 Z M25 53 C25 53.99 25 54.98 25 56 C25.66 56 26.32 56 27 56 C26.67 55.01 26.34 54.02 26 53 C25.67 53 25.34 53 25 53 Z M29 53 C28.67 53.99 28.34 54.98 28 56 C28.99 55.67 29.98 55.34 31 55 C31 54.34 31 53.68 31 53 C30.34 53 29.68 53 29 53 Z M12 54 C12 54.66 12 55.32 12 56 C12.66 56 13.32 56 14 56 C14 55.34 14 54.68 14 54 C13.34 54 12.68 54 12 54 Z M23 53 C22.34 53.66 21.68 54.32 21 55 C20.01 55 19.02 55 18 55 C18.66 56.32 19.32 57.64 20 59 C20.66 59 21.32 59 22 59 C21.67 60.98 21.34 62.96 21 65 C23.23221695 64.14092555 23.23221695 64.14092555 24.125 61.625 C25.15811388 58.98682384 25.15811388 58.98682384 25 56 C24.34 55.01 23.68 54.02 23 53 Z M28 60 C27.67 61.32 27.34 62.64 27 64 C26.34 64 25.68 64 25 64 C25 65.32 25 66.64 25 68 C25.66 68 26.32 68 27 68 C27 68.66 27 69.32 27 70 C26.01 69.67 25.02 69.34 24 69 C23.01 69.495 23.01 69.495 22 70 C22 70.99 22 71.98 22 73 C21.34 73 20.68 73 20 73 C19.67 74.65 19.34 76.3 19 78 C21.64 78 24.28 78 27 78 C27 77.34 27 76.68 27 76 C27.66 76 28.32 76 29 76 C29.33 76.66 29.66 77.32 30 78 C33.01345872 75.56979135 33.93592581 74.28094069 34.8125 70.4375 C35.21014678 67.01806042 35.21014678 67.01806042 34 64 C33.34 64 32.68 64 32 64 C32.33 63.01 32.66 62.02 33 61 C31.35 60.67 29.7 60.34 28 60 Z M21 67 C22 70 22 70 22 70 Z M18 74 C17.67 74.66 17.34 75.32 17 76 C17.66 76 18.32 76 19 76 C18.67 75.34 18.34 74.68 18 74 Z M-6 75 C-5.67 75.99 -5.34 76.98 -5 78 C-4.34 78 -3.68 78 -3 78 C-3.33 77.01 -3.66 76.02 -4 75 C-4.66 75 -5.32 75 -6 75 Z M-3 75 C-2.01 75.99 -1.02 76.98 0 78 C-0.33 77.01 -0.66 76.02 -1 75 C-1.66 75 -2.32 75 -3 75 Z M3 75 C2.67 75.99 2.34 76.98 2 78 C3.65 78 5.3 78 7 78 C6.67 77.01 6.34 76.02 6 75 C5.01 75 4.02 75 3 75 Z M7 75 C7.33 75.99 7.66 76.98 8 78 C8.99 78 9.98 78 11 78 C11.33 77.01 11.66 76.02 12 75 C10.35 75 8.7 75 7 75 Z M13 75 C12.67 75.99 12.34 76.98 12 78 C13.65 78 15.3 78 17 78 C16.67 77.01 16.34 76.02 16 75 C15.01 75 14.02 75 13 75 Z M-8 76 C-8 76.66 -8 77.32 -8 78 C-7.34 78 -6.68 78 -6 78 C-6 77.34 -6 76.68 -6 76 C-6.66 76 -7.32 76 -8 76 Z M-2 82 C-1.67 82.66 -1.34 83.32 -1 84 C-0.34 83.67 0.32 83.34 1 83 C0.01 82.67 -0.98 82.34 -2 82 Z M2 82 C2 82.66 2 83.32 2 84 C2.66 84 3.32 84 4 84 C4 83.34 4 82.68 4 82 C3.34 82 2.68 82 2 82 Z M5 82 C5 82.66 5 83.32 5 84 C5.66 84 6.32 84 7 84 C7 83.34 7 82.68 7 82 C6.34 82 5.68 82 5 82 Z M8 82 C8 82.66 8 83.32 8 84 C8.99 83.67 9.98 83.34 11 83 C10.01 82.67 9.02 82.34 8 82 Z M12 82 C12 82.66 12 83.32 12 84 C12.66 84 13.32 84 14 84 C14 83.34 14 82.68 14 82 C13.34 82 12.68 82 12 82 Z M15 82 C15 82.66 15 83.32 15 84 C15.66 84 16.32 84 17 84 C17 83.34 17 82.68 17 82 C16.34 82 15.68 82 15 82 Z M19 82 C18.67 82.66 18.34 83.32 18 84 C18.99 84 19.98 84 21 84 C21 83.34 21 82.68 21 82 C20.34 82 19.68 82 19 82 Z M22 82 C22 82.66 22 83.32 22 84 C22.66 84 23.32 84 24 84 C24 83.34 24 82.68 24 82 C23.34 82 22.68 82 22 82 Z M25 82 C25.33 82.99 25.66 83.98 26 85 C26.33 84.01 26.66 83.02 27 82 C26.34 82 25.68 82 25 82 Z M19 88 C19.33 88.99 19.66 89.98 20 91 C20.33 90.01 20.66 89.02 21 88 C20.34 88 19.68 88 19 88 Z M22 88 C22.33 88.99 22.66 89.98 23 91 C23.33 90.01 23.66 89.02 24 88 C23.34 88 22.68 88 22 88 Z M25 89 C24.67 90.32 24.34 91.64 24 93 C24.66 92.67 25.32 92.34 26 92 C25.67 91.01 25.34 90.02 25 89 Z " fill="#2284FA" transform="translate(38,0)"/>
<path d="M0 0 C12.21 0 24.42 0 37 0 C37.495 1.98 37.495 1.98 38 4 C38.66 4 39.32 4 40 4 C43 9.625 43 9.625 43 13 C43.66 13 44.32 13 45 13 C45 13.66 45 14.32 45 15 C44.34 15 43.68 15 43 15 C43.66 16.98 44.32 18.96 45 21 C44.34 21 43.68 21 43 21 C42.814375 21.8353125 42.814375 21.8353125 42.625 22.6875 C41.94023145 25.22114364 41.00866237 27.57921032 40 30 C39.34 30 38.68 30 38 30 C38 30.99 38 31.98 38 33 C36.02 33.495 36.02 33.495 34 34 C34.2475 35.0828125 34.2475 35.0828125 34.5 36.1875 C34.97587119 38.86427545 35.077443 41.28949487 35 44 C32.525 44.495 32.525 44.495 30 45 C30 45.66 30 46.32 30 47 C29.34 47 28.68 47 28 47 C26.92474806 44.34771188 25.90543849 41.71631546 25 39 C24.34 39 23.68 39 23 39 C23 38.01 23 37.02 23 36 C22.34 36 21.68 36 21 36 C20.67 36.99 20.34 37.98 20 39 C20 38.01 20 37.02 20 36 C19.34 36 18.68 36 18 36 C17.67 36.99 17.34 37.98 17 39 C16.67 38.01 16.34 37.02 16 36 C15.34 36 14.68 36 14 36 C13.67 36.99 13.34 37.98 13 39 C13 38.01 13 37.02 13 36 C12.34 36 11.68 36 11 36 C10.67 36.99 10.34 37.98 10 39 C10 38.01 10 37.02 10 36 C9.34 36 8.68 36 8 36 C7.67 36.99 7.34 37.98 7 39 C5.47551369 36.0173094 4.06059933 33.181798 3 30 C2.34 30 1.68 30 1 30 C0.67 30.99 0.34 31.98 0 33 C0 32.01 0 31.02 0 30 C-0.66 30 -1.32 30 -2 30 C-2 30.99 -2 31.98 -2 33 C-2.66 33 -3.32 33 -4 33 C-5.5625 30.1875 -5.5625 30.1875 -7 27 C-6.505 25.515 -6.505 25.515 -6 24 C-4.68 24 -3.36 24 -2 24 C-1.67 23.01 -1.34 22.02 -1 21 C-0.34 20.01 0.32 19.02 1 18 C3.24658203 17.65942383 3.24658203 17.65942383 6.0078125 17.70703125 C6.99394531 17.71669922 7.98007812 17.72636719 8.99609375 17.73632812 C10.02863281 17.76146484 11.06117187 17.78660156 12.125 17.8125 C13.68541016 17.83280273 13.68541016 17.83280273 15.27734375 17.85351562 C17.85207627 17.88894772 20.4257833 17.93834779 23 18 C22.979375 17.195625 22.95875 16.39125 22.9375 15.5625 C23 13 23 13 24 12 C23.67 11.01 23.34 10.02 23 9 C22.01 9.33 21.02 9.66 20 10 C20 10.66 20 11.32 20 12 C19.34 12 18.68 12 18 12 C17.67 12.99 17.34 13.98 17 15 C15.23937836 11.67438135 14.89215772 10.40826005 15.875 6.6875 C16.24625 5.800625 16.6175 4.91375 17 4 C16.01 3.34 15.02 2.68 14 2 C13.67 2.66 13.34 3.32 13 4 C13 3.34 13 2.68 13 2 C12.34 2 11.68 2 11 2 C10.67 2.66 10.34 3.32 10 4 C9.67 3.34 9.34 2.68 9 2 C8.34 2.66 7.68 3.32 7 4 C6.01 4 5.02 4 4 4 C3.67 3.01 3.34 2.02 3 1 C2.34 1 1.68 1 1 1 C0.67 1.99 0.34 2.98 0 4 C0 2.68 0 1.36 0 0 Z M21 1 C21 1.99 21 2.98 21 4 C21.66 4 22.32 4 23 4 C22.67 3.01 22.34 2.02 22 1 C21.67 1 21.34 1 21 1 Z M31 1 C31 1.99 31 2.98 31 4 C31.66 4 32.32 4 33 4 C32.67 3.01 32.34 2.02 32 1 C31.67 1 31.34 1 31 1 Z M35 1 C34.67 1.99 34.34 2.98 34 4 C34.99 3.67 35.98 3.34 37 3 C37 2.34 37 1.68 37 1 C36.34 1 35.68 1 35 1 Z M18 2 C18 2.66 18 3.32 18 4 C18.66 4 19.32 4 20 4 C20 3.34 20 2.68 20 2 C19.34 2 18.68 2 18 2 Z M29 1 C28.34 1.66 27.68 2.32 27 3 C26.01 3 25.02 3 24 3 C24.66 4.32 25.32 5.64 26 7 C26.66 7 27.32 7 28 7 C27.67 8.98 27.34 10.96 27 13 C29.23221695 12.14092555 29.23221695 12.14092555 30.125 9.625 C31.15811388 6.98682384 31.15811388 6.98682384 31 4 C30.34 3.01 29.68 2.02 29 1 Z M34 8 C33.67 9.32 33.34 10.64 33 12 C32.34 12 31.68 12 31 12 C31 13.32 31 14.64 31 16 C31.66 16 32.32 16 33 16 C33 16.66 33 17.32 33 18 C32.01 17.67 31.02 17.34 30 17 C29.01 17.495 29.01 17.495 28 18 C28 18.99 28 19.98 28 21 C27.34 21 26.68 21 26 21 C25.67 22.65 25.34 24.3 25 26 C27.64 26 30.28 26 33 26 C33 25.34 33 24.68 33 24 C33.66 24 34.32 24 35 24 C35.33 24.66 35.66 25.32 36 26 C39.01345872 23.56979135 39.93592581 22.28094069 40.8125 18.4375 C41.21014678 15.01806042 41.21014678 15.01806042 40 12 C39.34 12 38.68 12 38 12 C38.33 11.01 38.66 10.02 39 9 C37.35 8.67 35.7 8.34 34 8 Z M27 15 C28 18 28 18 28 18 Z M24 22 C23.67 22.66 23.34 23.32 23 24 C23.66 24 24.32 24 25 24 C24.67 23.34 24.34 22.68 24 22 Z M0 23 C0.33 23.99 0.66 24.98 1 26 C1.66 26 2.32 26 3 26 C2.67 25.01 2.34 24.02 2 23 C1.34 23 0.68 23 0 23 Z M3 23 C3.99 23.99 4.98 24.98 6 26 C5.67 25.01 5.34 24.02 5 23 C4.34 23 3.68 23 3 23 Z M9 23 C8.67 23.99 8.34 24.98 8 26 C9.65 26 11.3 26 13 26 C12.67 25.01 12.34 24.02 12 23 C11.01 23 10.02 23 9 23 Z M13 23 C13.33 23.99 13.66 24.98 14 26 C14.99 26 15.98 26 17 26 C17.33 25.01 17.66 24.02 18 23 C16.35 23 14.7 23 13 23 Z M19 23 C18.67 23.99 18.34 24.98 18 26 C19.65 26 21.3 26 23 26 C22.67 25.01 22.34 24.02 22 23 C21.01 23 20.02 23 19 23 Z M-2 24 C-2 24.66 -2 25.32 -2 26 C-1.34 26 -0.68 26 0 26 C0 25.34 0 24.68 0 24 C-0.66 24 -1.32 24 -2 24 Z M4 30 C4.33 30.66 4.66 31.32 5 32 C5.66 31.67 6.32 31.34 7 31 C6.01 30.67 5.02 30.34 4 30 Z M8 30 C8 30.66 8 31.32 8 32 C8.66 32 9.32 32 10 32 C10 31.34 10 30.68 10 30 C9.34 30 8.68 30 8 30 Z M11 30 C11 30.66 11 31.32 11 32 C11.66 32 12.32 32 13 32 C13 31.34 13 30.68 13 30 C12.34 30 11.68 30 11 30 Z M14 30 C14 30.66 14 31.32 14 32 C14.99 31.67 15.98 31.34 17 31 C16.01 30.67 15.02 30.34 14 30 Z M18 30 C18 30.66 18 31.32 18 32 C18.66 32 19.32 32 20 32 C20 31.34 20 30.68 20 30 C19.34 30 18.68 30 18 30 Z M21 30 C21 30.66 21 31.32 21 32 C21.66 32 22.32 32 23 32 C23 31.34 23 30.68 23 30 C22.34 30 21.68 30 21 30 Z M25 30 C24.67 30.66 24.34 31.32 24 32 C24.99 32 25.98 32 27 32 C27 31.34 27 30.68 27 30 C26.34 30 25.68 30 25 30 Z M28 30 C28 30.66 28 31.32 28 32 C28.66 32 29.32 32 30 32 C30 31.34 30 30.68 30 30 C29.34 30 28.68 30 28 30 Z M31 30 C31.33 30.99 31.66 31.98 32 33 C32.33 32.01 32.66 31.02 33 30 C32.34 30 31.68 30 31 30 Z M25 36 C25.33 36.99 25.66 37.98 26 39 C26.33 38.01 26.66 37.02 27 36 C26.34 36 25.68 36 25 36 Z M28 36 C28.33 36.99 28.66 37.98 29 39 C29.33 38.01 29.66 37.02 30 36 C29.34 36 28.68 36 28 36 Z M31 37 C30.67 38.32 30.34 39.64 30 41 C30.66 40.67 31.32 40.34 32 40 C31.67 39.01 31.34 38.02 31 37 Z " fill="#9FC1F3" transform="translate(32,52)"/>
<path d="M0 0 C13.86 0 27.72 0 42 0 C42.495 1.98 42.495 1.98 43 4 C41.68 4.33 40.36 4.66 39 5 C39.2475 6.0828125 39.2475 6.0828125 39.5 7.1875 C39.97587119 9.86427545 40.077443 12.28949487 40 15 C38.35 15.33 36.7 15.66 35 16 C35 16.66 35 17.32 35 18 C34.34 18 33.68 18 33 18 C31.92474806 15.34771188 30.90543849 12.71631546 30 10 C29.34 10 28.68 10 28 10 C28 9.01 28 8.02 28 7 C27.34 7 26.68 7 26 7 C25.67 7.99 25.34 8.98 25 10 C25 9.01 25 8.02 25 7 C24.34 7 23.68 7 23 7 C22.67 7.99 22.34 8.98 22 10 C21.67 9.01 21.34 8.02 21 7 C20.34 7 19.68 7 19 7 C18.67 7.99 18.34 8.98 18 10 C18 9.01 18 8.02 18 7 C17.34 7 16.68 7 16 7 C15.67 7.99 15.34 8.98 15 10 C15 9.01 15 8.02 15 7 C14.34 7 13.68 7 13 7 C12.67 7.99 12.34 8.98 12 10 C10.47551369 7.0173094 9.06059933 4.181798 8 1 C7.34 1 6.68 1 6 1 C5.67 1.99 5.34 2.98 5 4 C5 3.01 5 2.02 5 1 C4.34 1 3.68 1 3 1 C3 1.99 3 2.98 3 4 C2.34 4 1.68 4 1 4 C0.67 2.68 0.34 1.36 0 0 Z M9 1 C9.33 1.66 9.66 2.32 10 3 C10.66 2.67 11.32 2.34 12 2 C11.01 1.67 10.02 1.34 9 1 Z M13 1 C13 1.66 13 2.32 13 3 C13.66 3 14.32 3 15 3 C15 2.34 15 1.68 15 1 C14.34 1 13.68 1 13 1 Z M16 1 C16 1.66 16 2.32 16 3 C16.66 3 17.32 3 18 3 C18 2.34 18 1.68 18 1 C17.34 1 16.68 1 16 1 Z M19 1 C19 1.66 19 2.32 19 3 C19.99 2.67 20.98 2.34 22 2 C21.01 1.67 20.02 1.34 19 1 Z M23 1 C23 1.66 23 2.32 23 3 C23.66 3 24.32 3 25 3 C25 2.34 25 1.68 25 1 C24.34 1 23.68 1 23 1 Z M26 1 C26 1.66 26 2.32 26 3 C26.66 3 27.32 3 28 3 C28 2.34 28 1.68 28 1 C27.34 1 26.68 1 26 1 Z M30 1 C29.67 1.66 29.34 2.32 29 3 C29.99 3 30.98 3 32 3 C32 2.34 32 1.68 32 1 C31.34 1 30.68 1 30 1 Z M33 1 C33 1.66 33 2.32 33 3 C33.66 3 34.32 3 35 3 C35 2.34 35 1.68 35 1 C34.34 1 33.68 1 33 1 Z M36 1 C36.33 1.99 36.66 2.98 37 4 C37.33 3.01 37.66 2.02 38 1 C37.34 1 36.68 1 36 1 Z M30 7 C30.33 7.99 30.66 8.98 31 10 C31.33 9.01 31.66 8.02 32 7 C31.34 7 30.68 7 30 7 Z M33 7 C33.33 7.99 33.66 8.98 34 10 C34.33 9.01 34.66 8.02 35 7 C34.34 7 33.68 7 33 7 Z M36 8 C35.67 9.32 35.34 10.64 35 12 C35.66 11.67 36.32 11.34 37 11 C36.67 10.01 36.34 9.02 36 8 Z " fill="#CED9F2" transform="translate(27,81)"/>
<path d="M0 0 C0.33 0.99 0.66 1.98 1 3 C1.66 3 2.32 3 3 3 C2.67 4.98 2.34 6.96 2 9 C3.32 6.69 4.64 4.38 6 2 C8 5 8 5 8 8 C7.34 8 6.68 8 6 8 C6 9.32 6 10.64 6 12 C6.66 12 7.32 12 8 12 C8 12.66 8 13.32 8 14 C6.35 14 4.7 14 3 14 C3 14.99 3 15.98 3 17 C2.34 17 1.68 17 1 17 C0.67 17.99 0.34 18.98 0 20 C-9 20 -18 20 -27 20 C-26 17 -26 17 -24 14 C-21.75341797 13.65942383 -21.75341797 13.65942383 -18.9921875 13.70703125 C-18.00605469 13.71669922 -17.01992188 13.72636719 -16.00390625 13.73632812 C-14.97136719 13.76146484 -13.93882813 13.78660156 -12.875 13.8125 C-11.31458984 13.83280273 -11.31458984 13.83280273 -9.72265625 13.85351562 C-7.14792373 13.88894772 -4.5742167 13.93834779 -2 14 C-2.020625 13.195625 -2.04125 12.39125 -2.0625 11.5625 C-2 9 -2 9 -1 8 C-1.7763932 4.9254644 -1.7763932 4.9254644 -4 3 C-3.01 2.34 -2.02 1.68 -1 1 C-0.67 0.67 -0.34 0.34 0 0 Z M2 11 C3 14 3 14 3 14 Z " fill="#83B2F6" transform="translate(57,56)"/>
<path d="M0 0 C1.66666667 0 3.33333333 0 5 0 C5 0.66 5 1.32 5 2 C5.66 2 6.32 2 7 2 C7.33 1.34 7.66 0.68 8 0 C8 0.66 8 1.32 8 2 C8.66 2 9.32 2 10 2 C10.33 1.34 10.66 0.68 11 0 C12.32 0 13.64 0 15 0 C15 0.66 15 1.32 15 2 C15.66 2 16.32 2 17 2 C17.33 1.34 17.66 0.68 18 0 C18 0.66 18 1.32 18 2 C18.66 2 19.32 2 20 2 C20.33 1.34 20.66 0.68 21 0 C21 0.66 21 1.32 21 2 C21.99 2 22.98 2 24 2 C24.33 1.34 24.66 0.68 25 0 C25 0.66 25 1.32 25 2 C25.66 2 26.32 2 27 2 C27.33 1.34 27.66 0.68 28 0 C28 0.66 28 1.32 28 2 C28.66 2 29.32 2 30 2 C30 1.34 30 0.68 30 0 C30.66 0 31.32 0 32 0 C32 0.66 32 1.32 32 2 C32.66 2 33.32 2 34 2 C34.33 1.34 34.66 0.68 35 0 C35 0.66 35 1.32 35 2 C35.66 2 36.32 2 37 2 C37.33 1.34 37.66 0.68 38 0 C38 0.66 38 1.32 38 2 C38.66 2 39.32 2 40 2 C40 1.34 40 0.68 40 0 C40.66 0 41.32 0 42 0 C42 0.66 42 1.32 42 2 C43.32 2 44.64 2 46 2 C45.67 2.99 45.34 3.98 45 5 C30.48 5 15.96 5 1 5 C0.67 3.35 0.34 1.7 0 0 Z " fill="#4A97F7" transform="translate(25,76)"/>
<path d="M0 0 C8.91 0 17.82 0 27 0 C26.67 1.32 26.34 2.64 26 4 C25.67 3.67 25.34 3.34 25 3 C23.14825294 2.84213692 21.2909089 2.74892644 19.43359375 2.68359375 C17.7465332 2.62075195 17.7465332 2.62075195 16.02539062 2.55664062 C14.84138672 2.51732422 13.65738281 2.47800781 12.4375 2.4375 C11.24962891 2.39431641 10.06175781 2.35113281 8.83789062 2.30664062 C5.89205216 2.20016454 2.9461257 2.09815159 0 2 C0 1.34 0 0.68 0 0 Z " fill="#187FFA" transform="translate(38,85)"/>
<path d="M0 0 C2 2 2 2 2.1953125 3.9453125 C2.13020833 5.96354167 2.06510417 7.98177083 2 10 C0.35 10.33 -1.3 10.66 -3 11 C-3 11.66 -3 12.32 -3 13 C-3.66 13 -4.32 13 -5 13 C-6.42944945 10.64561267 -7.08661261 9.51967567 -6.625 6.75 C-6.41875 6.1725 -6.2125 5.595 -6 5 C-4.02 5.495 -4.02 5.495 -2 6 C-1.34 4.02 -0.68 2.04 0 0 Z " fill="#88B4F5" transform="translate(65,86)"/>
<path d="M0 0 C0.33 0.99 0.66 1.98 1 3 C1.66 3 2.32 3 3 3 C6 8.625 6 8.625 6 12 C6.66 12 7.32 12 8 12 C8 12.66 8 13.32 8 14 C6.68 14 5.36 14 4 14 C3.67 13.01 3.34 12.02 3 11 C2.34 11 1.68 11 1 11 C0.63890458 9.35567294 0.28629924 7.7094792 -0.0625 6.0625 C-0.25972656 5.14597656 -0.45695312 4.22945312 -0.66015625 3.28515625 C-0.77230469 2.53105469 -0.88445312 1.77695312 -1 1 C-0.67 0.67 -0.34 0.34 0 0 Z " fill="#97BCF4" transform="translate(69,53)"/>
<path d="M0 0 C0.33 0.66 0.66 1.32 1 2 C-0.32 2 -1.64 2 -3 2 C-3.33 3.65 -3.66 5.3 -4 7 C-4.66 7 -5.32 7 -6 7 C-6.33 7.99 -6.66 8.98 -7 10 C-8.125 7.75 -8.125 7.75 -9 5 C-8.25 2.75 -8.25 2.75 -7 1 C-4.53721199 -0.231394 -2.7204945 -0.07159196 0 0 Z " fill="#6AA6F6" transform="translate(56,57)"/>
<path d="M0 0 C0.66 0.33 1.32 0.66 2 1 C2 1.66 2 2.32 2 3 C1.34 3 0.68 3 0 3 C0.66 4.98 1.32 6.96 2 9 C1.34 9 0.68 9 0 9 C0 9.99 0 10.98 0 12 C0.66 12 1.32 12 2 12 C2 12.99 2 13.98 2 15 C1.34 15 0.68 15 0 15 C0 15.99 0 16.98 0 18 C-0.66 18 -1.32 18 -2 18 C-1.85946128 15.37461716 -1.71281053 12.74982573 -1.5625 10.125 C-1.52318359 9.37863281 -1.48386719 8.63226563 -1.44335938 7.86328125 C-1.11328125 2.2265625 -1.11328125 2.2265625 0 0 Z " fill="#C3D2F0" transform="translate(75,29)"/>
<path d="M0 0 C2.0625 0.4375 2.0625 0.4375 4 1 C3.67 1.99 3.34 2.98 3 4 C-0.0625 5.1875 -0.0625 5.1875 -3 6 C-1.125 1.125 -1.125 1.125 0 0 Z " fill="#3A8EFA" transform="translate(66,56)"/>
<path d="M0 0 C2 3 2 3 2 6 C1.01 6.495 1.01 6.495 0 7 C-0.66 7.99 -1.32 8.98 -2 10 C-2.6875 7.25 -2.6875 7.25 -3 4 C-1.5625 1.625 -1.5625 1.625 0 0 Z " fill="#82B0F3" transform="translate(63,58)"/>
<path d="M0 0 C1.65 0 3.3 0 5 0 C4.04578192 1.14926266 3.08647955 2.29430541 2.125 3.4375 C1.59132813 4.07558594 1.05765625 4.71367188 0.5078125 5.37109375 C-1 7 -1 7 -3 8 C-2.690625 7.236875 -2.38125 6.47375 -2.0625 5.6875 C-1.32106407 3.81210323 -0.63771783 1.91315348 0 0 Z " fill="#7FAFF5" transform="translate(38,0)"/>
<path d="M0 0 C0.99 0.33 1.98 0.66 3 1 C3 1.99 3 2.98 3 4 C3.66 4 4.32 4 5 4 C5 4.66 5 5.32 5 6 C3.68 6 2.36 6 1 6 C0.67 5.01 0.34 4.02 0 3 C-0.66 3 -1.32 3 -2 3 C-2 2.34 -2 1.68 -2 1 C-1.34 0.67 -0.68 0.34 0 0 Z " fill="#B4CBF0" transform="translate(72,61)"/>
<path d="M0 0 C0.99 0 1.98 0 3 0 C3.66 2.97 4.32 5.94 5 9 C4.34 9 3.68 9 3 9 C2.67 7.02 2.34 5.04 2 3 C1.34 3 0.68 3 0 3 C0 2.01 0 1.02 0 0 Z " fill="#D2DBEE" transform="translate(25,41)"/>
<path d="M0 0 C0.66 0 1.32 0 2 0 C2 0.99 2 1.98 2 3 C1.34 3 0.68 3 0 3 C0 2.01 0 1.02 0 0 Z " fill="#EAEAEA" transform="translate(78,88)"/>
<path d="M0 0 C0.66 0 1.32 0 2 0 C2 0.99 2 1.98 2 3 C1.34 3 0.68 3 0 3 C0 2.01 0 1.02 0 0 Z " fill="#EAEAEA" transform="translate(28,88)"/>
<path d="M0 0 C0.66 0 1.32 0 2 0 C2 0.99 2 1.98 2 3 C1.34 3 0.68 3 0 3 C0 2.01 0 1.02 0 0 Z " fill="#EAEAEA" transform="translate(15,88)"/>
<path d="M0 0 C0.66 0 1.32 0 2 0 C2 0.99 2 1.98 2 3 C1.34 3 0.68 3 0 3 C0 2.01 0 1.02 0 0 Z " fill="#EAEAEA" transform="translate(5,88)"/>
<path d="M0 0 C0.66 0 1.32 0 2 0 C2 0.99 2 1.98 2 3 C1.34 3 0.68 3 0 3 C0 2.01 0 1.02 0 0 Z " fill="#EAEAEA" transform="translate(83,85)"/>
<path d="M0 0 C0.66 0 1.32 0 2 0 C2 0.99 2 1.98 2 3 C1.34 3 0.68 3 0 3 C0 2.01 0 1.02 0 0 Z " fill="#EAEAEA" transform="translate(70,85)"/>
<path d="M0 0 C0.66 0 1.32 0 2 0 C2 0.99 2 1.98 2 3 C1.34 3 0.68 3 0 3 C0 2.01 0 1.02 0 0 Z " fill="#EAEAEA" transform="translate(33,85)"/>
<path d="M0 0 C0.66 0 1.32 0 2 0 C2 0.99 2 1.98 2 3 C1.34 3 0.68 3 0 3 C0 2.01 0 1.02 0 0 Z " fill="#EAEAEA" transform="translate(20,85)"/>
<path d="M0 0 C0.66 0 1.32 0 2 0 C2 0.99 2 1.98 2 3 C1.34 3 0.68 3 0 3 C0 2.01 0 1.02 0 0 Z " fill="#EAEAEA" transform="translate(88,82)"/>
<path d="M0 0 C0.66 0 1.32 0 2 0 C2 0.99 2 1.98 2 3 C1.34 3 0.68 3 0 3 C0 2.01 0 1.02 0 0 Z " fill="#EAEAEA" transform="translate(78,82)"/>
<path d="M0 0 C0.66 0 1.32 0 2 0 C2 0.99 2 1.98 2 3 C1.34 3 0.68 3 0 3 C0 2.01 0 1.02 0 0 Z " fill="#EAEAEA" transform="translate(5,82)"/>
<path d="M0 0 C0.66 0 1.32 0 2 0 C2 0.99 2 1.98 2 3 C1.34 3 0.68 3 0 3 C0 2.01 0 1.02 0 0 Z " fill="#EAEAEA" transform="translate(75,82)"/>
<path d="M0 0 C0.66 0 1.32 0 2 0 C2 0.99 2 1.98 2 3 C1.34 3 0.68 3 0 3 C0 2.01 0 1.02 0 0 Z " fill="#EAEAEA" transform="translate(25,82)"/>
<path d="M0 0 C0.66 0 1.32 0 2 0 C2 0.99 2 1.98 2 3 C1.34 3 0.68 3 0 3 C0 2.01 0 1.02 0 0 Z " fill="#EBEBEB" transform="translate(18,82)"/>
<path d="M0 0 C0.66 0 1.32 0 2 0 C2 0.99 2 1.98 2 3 C1.34 3 0.68 3 0 3 C0 2.01 0 1.02 0 0 Z " fill="#EAEAEA" transform="translate(15,82)"/>
<path d="M0 0 C0.66 0 1.32 0 2 0 C2 0.99 2 1.98 2 3 C1.34 3 0.68 3 0 3 C0 2.01 0 1.02 0 0 Z " fill="#EAEAEA" transform="translate(93,79)"/>
<path d="M0 0 C0.66 0 1.32 0 2 0 C2 0.99 2 1.98 2 3 C1.34 3 0.68 3 0 3 C0 2.01 0 1.02 0 0 Z " fill="#EAEAEA" transform="translate(83,79)"/>
<path d="M0 0 C0.66 0 1.32 0 2 0 C2 0.99 2 1.98 2 3 C1.34 3 0.68 3 0 3 C0 2.01 0 1.02 0 0 Z " fill="#EAEAEA" transform="translate(73,79)"/>
<path d="M0 0 C0.66 0 1.32 0 2 0 C2 0.99 2 1.98 2 3 C1.34 3 0.68 3 0 3 C0 2.01 0 1.02 0 0 Z " fill="#EAEAEA" transform="translate(23,79)"/>
<path d="M0 0 C0.66 0 1.32 0 2 0 C2 0.99 2 1.98 2 3 C1.34 3 0.68 3 0 3 C0 2.01 0 1.02 0 0 Z " fill="#EAEAEA" transform="translate(20,79)"/>
<path d="M0 0 C0.66 0 1.32 0 2 0 C2 0.99 2 1.98 2 3 C1.34 3 0.68 3 0 3 C0 2.01 0 1.02 0 0 Z " fill="#EAEAEA" transform="translate(10,79)"/>
<path d="M0 0 C0.66 0 1.32 0 2 0 C2 0.99 2 1.98 2 3 C1.34 3 0.68 3 0 3 C0 2.01 0 1.02 0 0 Z " fill="#EAEAEA" transform="translate(88,76)"/>
<path d="M0 0 C0.66 0 1.32 0 2 0 C2 0.99 2 1.98 2 3 C1.34 3 0.68 3 0 3 C0 2.01 0 1.02 0 0 Z " fill="#EAEAEA" transform="translate(78,76)"/>
<path d="M0 0 C0.66 0 1.32 0 2 0 C2 0.99 2 1.98 2 3 C1.34 3 0.68 3 0 3 C0 2.01 0 1.02 0 0 Z " fill="#EAEAEA" transform="translate(15,76)"/>
<path d="M0 0 C0.66 0 1.32 0 2 0 C2 0.99 2 1.98 2 3 C1.34 3 0.68 3 0 3 C0 2.01 0 1.02 0 0 Z " fill="#EAEAEA" transform="translate(5,76)"/>
<path d="M0 0 C0.66 0 1.32 0 2 0 C2 0.99 2 1.98 2 3 C1.34 3 0.68 3 0 3 C0 2.01 0 1.02 0 0 Z " fill="#EAEAEA" transform="translate(83,73)"/>
<path d="M0 0 C0.66 0 1.32 0 2 0 C2 0.99 2 1.98 2 3 C1.34 3 0.68 3 0 3 C0 2.01 0 1.02 0 0 Z " fill="#EAEAEA" transform="translate(93,50)"/>
<path d="M0 0 C0.66 0 1.32 0 2 0 C2 0.99 2 1.98 2 3 C1.34 3 0.68 3 0 3 C0 2.01 0 1.02 0 0 Z " fill="#EAEAEA" transform="translate(98,47)"/>
<path d="M0 0 C0.66 0 1.32 0 2 0 C2 0.99 2 1.98 2 3 C1.34 3 0.68 3 0 3 C0 2.01 0 1.02 0 0 Z " fill="#EAEAEA" transform="translate(88,47)"/>
<path d="M0 0 C0.66 0 1.32 0 2 0 C2 0.99 2 1.98 2 3 C1.34 3 0.68 3 0 3 C0 2.01 0 1.02 0 0 Z " fill="#EAEAEA" transform="translate(78,47)"/>
<path d="M0 0 C0.66 0 1.32 0 2 0 C2 0.99 2 1.98 2 3 C1.34 3 0.68 3 0 3 C0 2.01 0 1.02 0 0 Z " fill="#EAEAEA" transform="translate(15,47)"/>
<path d="M0 0 C0.66 0 1.32 0 2 0 C2 0.99 2 1.98 2 3 C1.34 3 0.68 3 0 3 C0 2.01 0 1.02 0 0 Z " fill="#EAEAEA" transform="translate(5,47)"/>
<path d="M0 0 C0.66 0 1.32 0 2 0 C2 0.99 2 1.98 2 3 C1.34 3 0.68 3 0 3 C0 2.01 0 1.02 0 0 Z " fill="#EAEAEA" transform="translate(93,44)"/>
<path d="M0 0 C0.66 0 1.32 0 2 0 C2 0.99 2 1.98 2 3 C1.34 3 0.68 3 0 3 C0 2.01 0 1.02 0 0 Z " fill="#EAEAEA" transform="translate(83,44)"/>
<path d="M0 0 C0.66 0 1.32 0 2 0 C2 0.99 2 1.98 2 3 C1.34 3 0.68 3 0 3 C0 2.01 0 1.02 0 0 Z " fill="#EAEAEA" transform="translate(23,44)"/>
<path d="M0 0 C0.66 0 1.32 0 2 0 C2 0.99 2 1.98 2 3 C1.34 3 0.68 3 0 3 C0 2.01 0 1.02 0 0 Z " fill="#EAEAEA" transform="translate(10,44)"/>
<path d="M0 0 C0.66 0 1.32 0 2 0 C2 0.99 2 1.98 2 3 C1.34 3 0.68 3 0 3 C0 2.01 0 1.02 0 0 Z " fill="#EBEBEB" transform="translate(80,44)"/>
<path d="M0 0 C0.66 0 1.32 0 2 0 C2 0.99 2 1.98 2 3 C1.34 3 0.68 3 0 3 C0 2.01 0 1.02 0 0 Z " fill="#EAEAEA" transform="translate(20,44)"/>
<path d="M0 0 C0.66 0 1.32 0 2 0 C2 0.99 2 1.98 2 3 C1.34 3 0.68 3 0 3 C0 2.01 0 1.02 0 0 Z " fill="#EAEAEA" transform="translate(98,41)"/>
<path d="M0 0 C0.66 0 1.32 0 2 0 C2 0.99 2 1.98 2 3 C1.34 3 0.68 3 0 3 C0 2.01 0 1.02 0 0 Z " fill="#EAEAEA" transform="translate(88,41)"/>
<path d="M0 0 C0.66 0 1.32 0 2 0 C2 0.99 2 1.98 2 3 C1.34 3 0.68 3 0 3 C0 2.01 0 1.02 0 0 Z " fill="#EAEAEA" transform="translate(78,41)"/>
<path d="M0 0 C0.66 0 1.32 0 2 0 C2 0.99 2 1.98 2 3 C1.34 3 0.68 3 0 3 C0 2.01 0 1.02 0 0 Z " fill="#EAEAEA" transform="translate(5,41)"/>
<path d="M0 0 C0.66 0 1.32 0 2 0 C2 0.99 2 1.98 2 3 C1.34 3 0.68 3 0 3 C0 2.01 0 1.02 0 0 Z " fill="#EBEBEB" transform="translate(18,41)"/>
<path d="M0 0 C0.66 0 1.32 0 2 0 C2 0.99 2 1.98 2 3 C1.34 3 0.68 3 0 3 C0 2.01 0 1.02 0 0 Z " fill="#EAEAEA" transform="translate(15,41)"/>
<path d="M0 0 C0.66 0 1.32 0 2 0 C2 0.99 2 1.98 2 3 C1.34 3 0.68 3 0 3 C0 2.01 0 1.02 0 0 Z " fill="#EAEAEA" transform="translate(83,38)"/>
<path d="M0 0 C0.66 0 1.32 0 2 0 C2 0.99 2 1.98 2 3 C1.34 3 0.68 3 0 3 C0 2.01 0 1.02 0 0 Z " fill="#EAEAEA" transform="translate(20,38)"/>
<path d="M0 0 C0.66 0 1.32 0 2 0 C2 0.99 2 1.98 2 3 C1.34 3 0.68 3 0 3 C0 2.01 0 1.02 0 0 Z " fill="#EAEAEA" transform="translate(73,9)"/>
<path d="M0 0 C0.66 0 1.32 0 2 0 C2 0.99 2 1.98 2 3 C1.34 3 0.68 3 0 3 C0 2.01 0 1.02 0 0 Z " fill="#EAEAEA" transform="translate(23,9)"/>
<path d="M0 0 C0.66 0 1.32 0 2 0 C2 0.99 2 1.98 2 3 C1.34 3 0.68 3 0 3 C0 2.01 0 1.02 0 0 Z " fill="#EAEAEA" transform="translate(70,9)"/>
<path d="M0 0 C0.66 0 1.32 0 2 0 C2 0.99 2 1.98 2 3 C1.34 3 0.68 3 0 3 C0 2.01 0 1.02 0 0 Z " fill="#EAEAEA" transform="translate(20,9)"/>
<path d="M0 0 C0.66 0 1.32 0 2 0 C2 0.99 2 1.98 2 3 C1.34 3 0.68 3 0 3 C0 2.01 0 1.02 0 0 Z " fill="#EAEAEA" transform="translate(85,6)"/>
<path d="M0 0 C0.66 0 1.32 0 2 0 C2 0.99 2 1.98 2 3 C1.34 3 0.68 3 0 3 C0 2.01 0 1.02 0 0 Z " fill="#EAEAEA" transform="translate(78,6)"/>
<path d="M0 0 C0.66 0 1.32 0 2 0 C2 0.99 2 1.98 2 3 C1.34 3 0.68 3 0 3 C0 2.01 0 1.02 0 0 Z " fill="#EAEAEA" transform="translate(75,6)"/>
<path d="M0 0 C0.66 0 1.32 0 2 0 C2 0.99 2 1.98 2 3 C1.34 3 0.68 3 0 3 C0 2.01 0 1.02 0 0 Z " fill="#EAEAEA" transform="translate(28,6)"/>
<path d="M0 0 C0.66 0 1.32 0 2 0 C2 0.99 2 1.98 2 3 C1.34 3 0.68 3 0 3 C0 2.01 0 1.02 0 0 Z " fill="#EAEAEA" transform="translate(25,6)"/>
<path d="M0 0 C0.66 0 1.32 0 2 0 C2 0.99 2 1.98 2 3 C1.34 3 0.68 3 0 3 C0 2.01 0 1.02 0 0 Z " fill="#E9E9E9" transform="translate(93,3)"/>
<path d="M0 0 C0.66 0 1.32 0 2 0 C2 0.99 2 1.98 2 3 C1.34 3 0.68 3 0 3 C0 2.01 0 1.02 0 0 Z " fill="#E9E9E9" transform="translate(90,3)"/>
<path d="M0 0 C0.66 0 1.32 0 2 0 C2 0.99 2 1.98 2 3 C1.34 3 0.68 3 0 3 C0 2.01 0 1.02 0 0 Z " fill="#E9E9E9" transform="translate(83,3)"/>
<path d="M0 0 C0.66 0 1.32 0 2 0 C2 0.99 2 1.98 2 3 C1.34 3 0.68 3 0 3 C0 2.01 0 1.02 0 0 Z " fill="#EAEAEA" transform="translate(80,3)"/>
<path d="M0 0 C0.66 0 1.32 0 2 0 C2 0.99 2 1.98 2 3 C1.34 3 0.68 3 0 3 C0 2.01 0 1.02 0 0 Z " fill="#EAEAEA" transform="translate(73,3)"/>
<path d="M0 0 C0.66 0 1.32 0 2 0 C2 0.99 2 1.98 2 3 C1.34 3 0.68 3 0 3 C0 2.01 0 1.02 0 0 Z " fill="#EAEAEA" transform="translate(70,3)"/>
<path d="M0 0 C0.66 0 1.32 0 2 0 C2 0.99 2 1.98 2 3 C1.34 3 0.68 3 0 3 C0 2.01 0 1.02 0 0 Z " fill="#EAEAEA" transform="translate(63,3)"/>
<path d="M0 0 C0.66 0 1.32 0 2 0 C2 0.99 2 1.98 2 3 C1.34 3 0.68 3 0 3 C0 2.01 0 1.02 0 0 Z " fill="#E9E9E9" transform="translate(33,3)"/>
<path d="M0 0 C0.66 0 1.32 0 2 0 C2 0.99 2 1.98 2 3 C1.34 3 0.68 3 0 3 C0 2.01 0 1.02 0 0 Z " fill="#EAEAEA" transform="translate(30,3)"/>
<path d="M0 0 C0.66 0 1.32 0 2 0 C2 0.99 2 1.98 2 3 C1.34 3 0.68 3 0 3 C0 2.01 0 1.02 0 0 Z " fill="#EAEAEA" transform="translate(23,3)"/>
<path d="M0 0 C0.66 0 1.32 0 2 0 C2 0.99 2 1.98 2 3 C1.34 3 0.68 3 0 3 C0 2.01 0 1.02 0 0 Z " fill="#EAEAEA" transform="translate(20,3)"/>
<path d="M0 0 C0.66 0 1.32 0 2 0 C2 0.99 2 1.98 2 3 C1.34 3 0.68 3 0 3 C0 2.01 0 1.02 0 0 Z " fill="#EAEAEA" transform="translate(13,3)"/>
<path d="M0 0 C0.66 0 1.32 0 2 0 C2 0.99 2 1.98 2 3 C1.34 3 0.68 3 0 3 C0 2.01 0 1.02 0 0 Z " fill="#E9E9E9" transform="translate(10,3)"/>
<path d="M0 0 C0.66 0 1.32 0 2 0 C2 0.99 2 1.98 2 3 C1.34 3 0.68 3 0 3 C0 2.01 0 1.02 0 0 Z " fill="#E9E9E9" transform="translate(0,3)"/>
<path d="M0 0 C0.66 0 1.32 0 2 0 C2 0.99 2 1.98 2 3 C1.34 3 0.68 3 0 3 C0 2.01 0 1.02 0 0 Z " fill="#E9E9E9" transform="translate(98,0)"/>
<path d="M0 0 C0.66 0 1.32 0 2 0 C2 0.99 2 1.98 2 3 C1.34 3 0.68 3 0 3 C0 2.01 0 1.02 0 0 Z " fill="#E9E9E9" transform="translate(88,0)"/>
<path d="M0 0 C0.66 0 1.32 0 2 0 C2 0.99 2 1.98 2 3 C1.34 3 0.68 3 0 3 C0 2.01 0 1.02 0 0 Z " fill="#E9E9E9" transform="translate(85,0)"/>
<path d="M0 0 C0.66 0 1.32 0 2 0 C2 0.99 2 1.98 2 3 C1.34 3 0.68 3 0 3 C0 2.01 0 1.02 0 0 Z " fill="#E9E9E9" transform="translate(78,0)"/>
<path d="M0 0 C0.66 0 1.32 0 2 0 C2 0.99 2 1.98 2 3 C1.34 3 0.68 3 0 3 C0 2.01 0 1.02 0 0 Z " fill="#E9E9E9" transform="translate(75,0)"/>
<path d="M0 0 C0.66 0 1.32 0 2 0 C2 0.99 2 1.98 2 3 C1.34 3 0.68 3 0 3 C0 2.01 0 1.02 0 0 Z " fill="#E9E9E9" transform="translate(65,0)"/>
<path d="M0 0 C0.66 0 1.32 0 2 0 C2 0.99 2 1.98 2 3 C1.34 3 0.68 3 0 3 C0 2.01 0 1.02 0 0 Z " fill="#E9E9E9" transform="translate(58,0)"/>
<path d="M0 0 C0.66 0 1.32 0 2 0 C2 0.99 2 1.98 2 3 C1.34 3 0.68 3 0 3 C0 2.01 0 1.02 0 0 Z " fill="#E9E9E9" transform="translate(55,0)"/>
<path d="M0 0 C0.66 0 1.32 0 2 0 C2 0.99 2 1.98 2 3 C1.34 3 0.68 3 0 3 C0 2.01 0 1.02 0 0 Z " fill="#E9E9E9" transform="translate(35,0)"/>
<path d="M0 0 C0.66 0 1.32 0 2 0 C2 0.99 2 1.98 2 3 C1.34 3 0.68 3 0 3 C0 2.01 0 1.02 0 0 Z " fill="#E9E9E9" transform="translate(28,0)"/>
<path d="M0 0 C0.66 0 1.32 0 2 0 C2 0.99 2 1.98 2 3 C1.34 3 0.68 3 0 3 C0 2.01 0 1.02 0 0 Z " fill="#E9E9E9" transform="translate(25,0)"/>
<path d="M0 0 C0.66 0 1.32 0 2 0 C2 0.99 2 1.98 2 3 C1.34 3 0.68 3 0 3 C0 2.01 0 1.02 0 0 Z " fill="#E9E9E9" transform="translate(15,0)"/>
<path d="M0 0 C0.66 0 1.32 0 2 0 C2 0.99 2 1.98 2 3 C1.34 3 0.68 3 0 3 C0 2.01 0 1.02 0 0 Z " fill="#E9E9E9" transform="translate(8,0)"/>
<path d="M0 0 C0.66 0 1.32 0 2 0 C2 0.99 2 1.98 2 3 C1.34 3 0.68 3 0 3 C0 2.01 0 1.02 0 0 Z " fill="#E9E9E9" transform="translate(5,0)"/>
<path d="M0 0 C0.66 0 1.32 0 2 0 C2 0.99 2 1.98 2 3 C1.34 3 0.68 3 0 3 C0 2.01 0 1.02 0 0 Z " fill="#EAEAEA" transform="translate(68,0)"/>
<path d="M0 0 C0.66 0 1.32 0 2 0 C2 0.99 2 1.98 2 3 C1.34 3 0.68 3 0 3 C0 2.01 0 1.02 0 0 Z " fill="#EAEAEA" transform="translate(18,0)"/>
<path d="M0 0 C0.66 0 1.32 0 2 0 C1.67 0.99 1.34 1.98 1 3 C0.67 2.01 0.34 1.02 0 0 Z " fill="#EAEAEA" transform="translate(98,94)"/>
<path d="M0 0 C0.66 0 1.32 0 2 0 C1.67 0.99 1.34 1.98 1 3 C0.67 2.01 0.34 1.02 0 0 Z " fill="#EAEAEA" transform="translate(88,94)"/>
<path d="M0 0 C0.66 0 1.32 0 2 0 C1.67 0.99 1.34 1.98 1 3 C0.67 2.01 0.34 1.02 0 0 Z " fill="#EAEAEA" transform="translate(85,94)"/>
<path d="M0 0 C0.66 0 1.32 0 2 0 C1.67 0.99 1.34 1.98 1 3 C0.67 2.01 0.34 1.02 0 0 Z " fill="#EAEAEA" transform="translate(78,94)"/>
<path d="M0 0 C0.66 0 1.32 0 2 0 C1.67 0.99 1.34 1.98 1 3 C0.67 2.01 0.34 1.02 0 0 Z " fill="#EAEAEA" transform="translate(75,94)"/>
<path d="M0 0 C0.66 0 1.32 0 2 0 C1.67 0.99 1.34 1.98 1 3 C0.67 2.01 0.34 1.02 0 0 Z " fill="#EAEAEA" transform="translate(55,94)"/>
<path d="M0 0 C0.66 0 1.32 0 2 0 C1.67 0.99 1.34 1.98 1 3 C0.67 2.01 0.34 1.02 0 0 Z " fill="#E9E9E9" transform="translate(48,94)"/>
<path d="M0 0 C0.66 0 1.32 0 2 0 C1.67 0.99 1.34 1.98 1 3 C0.67 2.01 0.34 1.02 0 0 Z " fill="#EAEAEA" transform="translate(38,94)"/>
<path d="M0 0 C0.66 0 1.32 0 2 0 C1.67 0.99 1.34 1.98 1 3 C0.67 2.01 0.34 1.02 0 0 Z " fill="#EAEAEA" transform="translate(35,94)"/>
<path d="M0 0 C0.66 0 1.32 0 2 0 C1.67 0.99 1.34 1.98 1 3 C0.67 2.01 0.34 1.02 0 0 Z " fill="#EAEAEA" transform="translate(28,94)"/>
<path d="M0 0 C0.66 0 1.32 0 2 0 C1.67 0.99 1.34 1.98 1 3 C0.67 2.01 0.34 1.02 0 0 Z " fill="#EAEAEA" transform="translate(25,94)"/>
<path d="M0 0 C0.66 0 1.32 0 2 0 C1.67 0.99 1.34 1.98 1 3 C0.67 2.01 0.34 1.02 0 0 Z " fill="#EAEAEA" transform="translate(15,94)"/>
<path d="M0 0 C0.66 0 1.32 0 2 0 C1.67 0.99 1.34 1.98 1 3 C0.67 2.01 0.34 1.02 0 0 Z " fill="#EAEAEA" transform="translate(5,94)"/>
<path d="M0 0 C0.66 0 1.32 0 2 0 C1.67 0.99 1.34 1.98 1 3 C0.67 2.01 0.34 1.02 0 0 Z " fill="#EAEAEA" transform="translate(68,94)"/>
<path d="M0 0 C0.66 0 1.32 0 2 0 C1.67 0.99 1.34 1.98 1 3 C0.67 2.01 0.34 1.02 0 0 Z " fill="#EAEAEA" transform="translate(18,94)"/>
<path d="M0 0 C0.66 0 1.32 0 2 0 C1.67 0.99 1.34 1.98 1 3 C0.67 2.01 0.34 1.02 0 0 Z " fill="#EAEAEA" transform="translate(93,91)"/>
<path d="M0 0 C0.66 0 1.32 0 2 0 C1.67 0.99 1.34 1.98 1 3 C0.67 2.01 0.34 1.02 0 0 Z " fill="#EAEAEA" transform="translate(83,91)"/>
<path d="M0 0 C0.66 0 1.32 0 2 0 C1.67 0.99 1.34 1.98 1 3 C0.67 2.01 0.34 1.02 0 0 Z " fill="#EAEAEA" transform="translate(73,91)"/>
<path d="M0 0 C0.66 0 1.32 0 2 0 C1.67 0.99 1.34 1.98 1 3 C0.67 2.01 0.34 1.02 0 0 Z " fill="#EAEAEA" transform="translate(70,91)"/>
<path d="M0 0 C0.66 0 1.32 0 2 0 C1.67 0.99 1.34 1.98 1 3 C0.67 2.01 0.34 1.02 0 0 Z " fill="#E9E9E9" transform="translate(50,91)"/>
<path d="M0 0 C0.66 0 1.32 0 2 0 C1.67 0.99 1.34 1.98 1 3 C0.67 2.01 0.34 1.02 0 0 Z " fill="#EAEAEA" transform="translate(43,91)"/>
<path d="M0 0 C0.66 0 1.32 0 2 0 C1.67 0.99 1.34 1.98 1 3 C0.67 2.01 0.34 1.02 0 0 Z " fill="#EAEAEA" transform="translate(33,91)"/>
<path d="M0 0 C0.66 0 1.32 0 2 0 C1.67 0.99 1.34 1.98 1 3 C0.67 2.01 0.34 1.02 0 0 Z " fill="#EAEAEA" transform="translate(23,91)"/>
<path d="M0 0 C0.66 0 1.32 0 2 0 C1.67 0.99 1.34 1.98 1 3 C0.67 2.01 0.34 1.02 0 0 Z " fill="#EAEAEA" transform="translate(20,91)"/>
<path d="M0 0 C0.66 0 1.32 0 2 0 C1.67 0.99 1.34 1.98 1 3 C0.67 2.01 0.34 1.02 0 0 Z " fill="#EAEAEA" transform="translate(13,91)"/>
<path d="M0 0 C0.66 0 1.32 0 2 0 C1.67 0.99 1.34 1.98 1 3 C0.67 2.01 0.34 1.02 0 0 Z " fill="#EAEAEA" transform="translate(10,91)"/>
<path d="M0 0 C0.66 0 1.32 0 2 0 C1.67 0.99 1.34 1.98 1 3 C0.67 2.01 0.34 1.02 0 0 Z " fill="#EAEAEA" transform="translate(0,91)"/>
<path d="M0 0 C0.66 0 1.32 0 2 0 C1.67 0.99 1.34 1.98 1 3 C0.67 2.01 0.34 1.02 0 0 Z " fill="#EAEAEA" transform="translate(80,91)"/>
<path d="M0 0 C0.66 0 1.32 0 2 0 C1.67 0.99 1.34 1.98 1 3 C0.67 2.01 0.34 1.02 0 0 Z " fill="#EAEAEA" transform="translate(30,91)"/>
<path d="M0 0 C0.66 0 1.32 0 2 0 C1.67 0.99 1.34 1.98 1 3 C0.67 2.01 0.34 1.02 0 0 Z " fill="#E9E9E9" transform="translate(98,88)"/>
<path d="M0 0 C0.66 0 1.32 0 2 0 C1.67 0.99 1.34 1.98 1 3 C0.67 2.01 0.34 1.02 0 0 Z " fill="#E9E9E9" transform="translate(88,88)"/>
<path d="M0 0 C0.66 0 1.32 0 2 0 C1.67 0.99 1.34 1.98 1 3 C0.67 2.01 0.34 1.02 0 0 Z " fill="#E9E9E9" transform="translate(85,88)"/>
<path d="M0 0 C0.66 0 1.32 0 2 0 C1.67 0.99 1.34 1.98 1 3 C0.67 2.01 0.34 1.02 0 0 Z " fill="#E9E9E9" transform="translate(75,88)"/>
<path d="M0 0 C0.66 0 1.32 0 2 0 C1.67 0.99 1.34 1.98 1 3 C0.67 2.01 0.34 1.02 0 0 Z " fill="#E9E9E9" transform="translate(35,88)"/>
<path d="M0 0 C0.66 0 1.32 0 2 0 C1.67 0.99 1.34 1.98 1 3 C0.67 2.01 0.34 1.02 0 0 Z " fill="#E9E9E9" transform="translate(25,88)"/>
<path d="M0 0 C0.66 0 1.32 0 2 0 C1.67 0.99 1.34 1.98 1 3 C0.67 2.01 0.34 1.02 0 0 Z " fill="#EBEBEB" transform="translate(68,88)"/>
<path d="M0 0 C0.66 0 1.32 0 2 0 C1.67 0.99 1.34 1.98 1 3 C0.67 2.01 0.34 1.02 0 0 Z " fill="#EBEBEB" transform="translate(18,88)"/>
<path d="M0 0 C0.66 0 1.32 0 2 0 C1.67 0.99 1.34 1.98 1 3 C0.67 2.01 0.34 1.02 0 0 Z " fill="#E9E9E9" transform="translate(93,85)"/>
<path d="M0 0 C0.66 0 1.32 0 2 0 C1.67 0.99 1.34 1.98 1 3 C0.67 2.01 0.34 1.02 0 0 Z " fill="#EAEAEA" transform="translate(73,85)"/>
<path d="M0 0 C0.66 0 1.32 0 2 0 C1.67 0.99 1.34 1.98 1 3 C0.67 2.01 0.34 1.02 0 0 Z " fill="#EAEAEA" transform="translate(23,85)"/>
<path d="M0 0 C0.66 0 1.32 0 2 0 C1.67 0.99 1.34 1.98 1 3 C0.67 2.01 0.34 1.02 0 0 Z " fill="#EAEAEA" transform="translate(13,85)"/>
<path d="M0 0 C0.66 0 1.32 0 2 0 C1.67 0.99 1.34 1.98 1 3 C0.67 2.01 0.34 1.02 0 0 Z " fill="#E9E9E9" transform="translate(10,85)"/>
<path d="M0 0 C0.66 0 1.32 0 2 0 C1.67 0.99 1.34 1.98 1 3 C0.67 2.01 0.34 1.02 0 0 Z " fill="#E9E9E9" transform="translate(0,85)"/>
<path d="M0 0 C0.66 0 1.32 0 2 0 C1.67 0.99 1.34 1.98 1 3 C0.67 2.01 0.34 1.02 0 0 Z " fill="#EBEBEB" transform="translate(80,85)"/>
<path d="M0 0 C0.66 0 1.32 0 2 0 C1.67 0.99 1.34 1.98 1 3 C0.67 2.01 0.34 1.02 0 0 Z " fill="#EBEBEB" transform="translate(30,85)"/>
<path d="M0 0 C0.66 0 1.32 0 2 0 C1.67 0.99 1.34 1.98 1 3 C0.67 2.01 0.34 1.02 0 0 Z " fill="#E9E9E9" transform="translate(98,82)"/>
<path d="M0 0 C0.66 0 1.32 0 2 0 C1.67 0.99 1.34 1.98 1 3 C0.67 2.01 0.34 1.02 0 0 Z " fill="#EAEAEA" transform="translate(0,79)"/>
<path d="M0 0 C0.33 0.99 0.66 1.98 1 3 C0.34 3 -0.32 3 -1 3 C-0.67 2.01 -0.34 1.02 0 0 Z " fill="#E9E9E9" transform="translate(99,76)"/>
<path d="M0 0 C0.99 0.495 0.99 0.495 2 1 C2 1.66 2 2.32 2 3 C1.34 3 0.68 3 0 3 C0 2.01 0 1.02 0 0 Z " fill="#EAEAEA" transform="translate(85,76)"/>
<path d="M0 0 C0.99 0.495 0.99 0.495 2 1 C2 1.66 2 2.32 2 3 C1.34 3 0.68 3 0 3 C0 2.01 0 1.02 0 0 Z " fill="#EAEAEA" transform="translate(75,76)"/>
<path d="M0 0 C0.33 0.99 0.66 1.98 1 3 C0.34 3 -0.32 3 -1 3 C-0.67 2.01 -0.34 1.02 0 0 Z " fill="#EBEBEB" transform="translate(19,76)"/>
<path d="M0 0 C0.33 0.99 0.66 1.98 1 3 C0.34 3 -0.32 3 -1 3 C-0.67 2.01 -0.34 1.02 0 0 Z " fill="#E9E9E9" transform="translate(94,73)"/>
<path d="M0 0 C0.99 0.495 0.99 0.495 2 1 C2 1.66 2 2.32 2 3 C1.34 3 0.68 3 0 3 C0 2.01 0 1.02 0 0 Z " fill="#EAEAEA" transform="translate(90,73)"/>
<path d="M0 0 C0.99 0.495 0.99 0.495 2 1 C2 1.66 2 2.32 2 3 C1.34 3 0.68 3 0 3 C0 2.01 0 1.02 0 0 Z " fill="#EBEBEB" transform="translate(80,73)"/>
<path d="M0 0 C0.33 0.99 0.66 1.98 1 3 C0.34 3 -0.32 3 -1 3 C-0.67 2.01 -0.34 1.02 0 0 Z " fill="#EAEAEA" transform="translate(64,73)"/>
<path d="M0 0 C0.99 0.495 0.99 0.495 2 1 C2 1.66 2 2.32 2 3 C1.34 3 0.68 3 0 3 C0 2.01 0 1.02 0 0 Z " fill="#E9E9E9" transform="translate(60,73)"/>
<path d="M0 0 C0.33 0.99 0.66 1.98 1 3 C0.34 3 -0.32 3 -1 3 C-0.67 2.01 -0.34 1.02 0 0 Z " fill="#EAEAEA" transform="translate(24,73)"/>
<path d="M0 0 C0.99 0.495 0.99 0.495 2 1 C2 1.66 2 2.32 2 3 C1.34 3 0.68 3 0 3 C0 2.01 0 1.02 0 0 Z " fill="#EAEAEA" transform="translate(20,73)"/>
<path d="M0 0 C0.33 0.99 0.66 1.98 1 3 C0.34 3 -0.32 3 -1 3 C-0.67 2.01 -0.34 1.02 0 0 Z " fill="#EAEAEA" transform="translate(14,73)"/>
<path d="M0 0 C0.99 0.495 0.99 0.495 2 1 C2 1.66 2 2.32 2 3 C1.34 3 0.68 3 0 3 C0 2.01 0 1.02 0 0 Z " fill="#E9E9E9" transform="translate(10,73)"/>
<path d="M0 0 C0.99 0.495 0.99 0.495 2 1 C2 1.66 2 2.32 2 3 C1.34 3 0.68 3 0 3 C0 2.01 0 1.02 0 0 Z " fill="#E9E9E9" transform="translate(0,73)"/>
<path d="M0 0 C0.33 0.99 0.66 1.98 1 3 C0.34 3 -0.32 3 -1 3 C-0.67 2.01 -0.34 1.02 0 0 Z " fill="#EAEAEA" transform="translate(99,70)"/>
<path d="M0 0 C0.33 0.99 0.66 1.98 1 3 C0.34 3 -0.32 3 -1 3 C-0.67 2.01 -0.34 1.02 0 0 Z " fill="#EAEAEA" transform="translate(89,70)"/>
<path d="M0 0 C0.99 0.495 0.99 0.495 2 1 C2 1.66 2 2.32 2 3 C1.34 3 0.68 3 0 3 C0 2.01 0 1.02 0 0 Z " fill="#EAEAEA" transform="translate(85,70)"/>
<path d="M0 0 C0.33 0.99 0.66 1.98 1 3 C0.34 3 -0.32 3 -1 3 C-0.67 2.01 -0.34 1.02 0 0 Z " fill="#EAEAEA" transform="translate(79,70)"/>
<path d="M0 0 C0.33 0.99 0.66 1.98 1 3 C0.34 3 -0.32 3 -1 3 C-0.67 2.01 -0.34 1.02 0 0 Z " fill="#EBEBEB" transform="translate(69,70)"/>
<path d="M0 0 C0.99 0.495 0.99 0.495 2 1 C2 1.66 2 2.32 2 3 C1.34 3 0.68 3 0 3 C0 2.01 0 1.02 0 0 Z " fill="#EAEAEA" transform="translate(65,70)"/>
<path d="M0 0 C0.33 0.99 0.66 1.98 1 3 C0.34 3 -0.32 3 -1 3 C-0.67 2.01 -0.34 1.02 0 0 Z " fill="#EAEAEA" transform="translate(29,70)"/>
<path d="M0 0 C0.99 0.495 0.99 0.495 2 1 C2 1.66 2 2.32 2 3 C1.34 3 0.68 3 0 3 C0 2.01 0 1.02 0 0 Z " fill="#EAEAEA" transform="translate(25,70)"/>
<path d="M0 0 C0.33 0.99 0.66 1.98 1 3 C0.34 3 -0.32 3 -1 3 C-0.67 2.01 -0.34 1.02 0 0 Z " fill="#EBEBEB" transform="translate(19,70)"/>
<path d="M0 0 C0.99 0.495 0.99 0.495 2 1 C2 1.66 2 2.32 2 3 C1.34 3 0.68 3 0 3 C0 2.01 0 1.02 0 0 Z " fill="#EAEAEA" transform="translate(15,70)"/>
<path d="M0 0 C0.33 0.99 0.66 1.98 1 3 C0.34 3 -0.32 3 -1 3 C-0.67 2.01 -0.34 1.02 0 0 Z " fill="#EAEAEA" transform="translate(9,70)"/>
<path d="M0 0 C0.99 0.495 0.99 0.495 2 1 C2 1.66 2 2.32 2 3 C1.34 3 0.68 3 0 3 C0 2.01 0 1.02 0 0 Z " fill="#EAEAEA" transform="translate(5,70)"/>
<path d="M0 0 C0.66 0 1.32 0 2 0 C1.67 0.99 1.34 1.98 1 3 C0.67 2.01 0.34 1.02 0 0 Z " fill="#EAEAEA" transform="translate(93,56)"/>
<path d="M0 0 C0.66 0 1.32 0 2 0 C1.67 0.99 1.34 1.98 1 3 C0.67 2.01 0.34 1.02 0 0 Z " fill="#EAEAEA" transform="translate(90,56)"/>
<path d="M0 0 C0.66 0 1.32 0 2 0 C1.67 0.99 1.34 1.98 1 3 C0.67 2.01 0.34 1.02 0 0 Z " fill="#EAEAEA" transform="translate(83,56)"/>
<path d="M0 0 C0.66 0 1.32 0 2 0 C1.67 0.99 1.34 1.98 1 3 C0.67 2.01 0.34 1.02 0 0 Z " fill="#EAEAEA" transform="translate(73,56)"/>
<path d="M0 0 C0.66 0 1.32 0 2 0 C1.67 0.99 1.34 1.98 1 3 C0.67 2.01 0.34 1.02 0 0 Z " fill="#EAEAEA" transform="translate(60,56)"/>
<path d="M0 0 C0.66 0 1.32 0 2 0 C1.67 0.99 1.34 1.98 1 3 C0.67 2.01 0.34 1.02 0 0 Z " fill="#EAEAEA" transform="translate(43,56)"/>
<path d="M0 0 C0.66 0 1.32 0 2 0 C1.67 0.99 1.34 1.98 1 3 C0.67 2.01 0.34 1.02 0 0 Z " fill="#EAEAEA" transform="translate(40,56)"/>
<path d="M0 0 C0.66 0 1.32 0 2 0 C1.67 0.99 1.34 1.98 1 3 C0.67 2.01 0.34 1.02 0 0 Z " fill="#EAEAEA" transform="translate(33,56)"/>
<path d="M0 0 C0.66 0 1.32 0 2 0 C1.67 0.99 1.34 1.98 1 3 C0.67 2.01 0.34 1.02 0 0 Z " fill="#EAEAEA" transform="translate(23,56)"/>
<path d="M0 0 C0.66 0 1.32 0 2 0 C1.67 0.99 1.34 1.98 1 3 C0.67 2.01 0.34 1.02 0 0 Z " fill="#EAEAEA" transform="translate(20,56)"/>
<path d="M0 0 C0.66 0 1.32 0 2 0 C1.67 0.99 1.34 1.98 1 3 C0.67 2.01 0.34 1.02 0 0 Z " fill="#EAEAEA" transform="translate(13,56)"/>
<path d="M0 0 C0.66 0 1.32 0 2 0 C1.67 0.99 1.34 1.98 1 3 C0.67 2.01 0.34 1.02 0 0 Z " fill="#EAEAEA" transform="translate(10,56)"/>
<path d="M0 0 C0.66 0 1.32 0 2 0 C1.67 0.99 1.34 1.98 1 3 C0.67 2.01 0.34 1.02 0 0 Z " fill="#EAEAEA" transform="translate(0,56)"/>
<path d="M0 0 C0.66 0 1.32 0 2 0 C1.67 0.99 1.34 1.98 1 3 C0.67 2.01 0.34 1.02 0 0 Z " fill="#EBEBEB" transform="translate(80,56)"/>
<path d="M0 0 C0.66 0 1.32 0 2 0 C1.67 0.99 1.34 1.98 1 3 C0.67 2.01 0.34 1.02 0 0 Z " fill="#EBEBEB" transform="translate(30,56)"/>
<path d="M0 0 C0.66 0 1.32 0 2 0 C1.67 0.99 1.34 1.98 1 3 C0.67 2.01 0.34 1.02 0 0 Z " fill="#EAEAEA" transform="translate(98,53)"/>
<path d="M0 0 C0.66 0 1.32 0 2 0 C1.67 0.99 1.34 1.98 1 3 C0.67 2.01 0.34 1.02 0 0 Z " fill="#EAEAEA" transform="translate(88,53)"/>
<path d="M0 0 C0.66 0 1.32 0 2 0 C1.67 0.99 1.34 1.98 1 3 C0.67 2.01 0.34 1.02 0 0 Z " fill="#EAEAEA" transform="translate(85,53)"/>
<path d="M0 0 C0.66 0 1.32 0 2 0 C1.67 0.99 1.34 1.98 1 3 C0.67 2.01 0.34 1.02 0 0 Z " fill="#EAEAEA" transform="translate(78,53)"/>
<path d="M0 0 C0.66 0 1.32 0 2 0 C1.67 0.99 1.34 1.98 1 3 C0.67 2.01 0.34 1.02 0 0 Z " fill="#EAEAEA" transform="translate(75,53)"/>
<path d="M0 0 C0.66 0 1.32 0 2 0 C1.67 0.99 1.34 1.98 1 3 C0.67 2.01 0.34 1.02 0 0 Z " fill="#EAEAEA" transform="translate(28,53)"/>
<path d="M0 0 C0.66 0 1.32 0 2 0 C1.67 0.99 1.34 1.98 1 3 C0.67 2.01 0.34 1.02 0 0 Z " fill="#EAEAEA" transform="translate(25,53)"/>
<path d="M0 0 C0.66 0 1.32 0 2 0 C1.67 0.99 1.34 1.98 1 3 C0.67 2.01 0.34 1.02 0 0 Z " fill="#EAEAEA" transform="translate(15,53)"/>
<path d="M0 0 C0.66 0 1.32 0 2 0 C1.67 0.99 1.34 1.98 1 3 C0.67 2.01 0.34 1.02 0 0 Z " fill="#EAEAEA" transform="translate(8,53)"/>
<path d="M0 0 C0.66 0 1.32 0 2 0 C1.67 0.99 1.34 1.98 1 3 C0.67 2.01 0.34 1.02 0 0 Z " fill="#EAEAEA" transform="translate(5,53)"/>
<path d="M0 0 C0.66 0 1.32 0 2 0 C1.67 0.99 1.34 1.98 1 3 C0.67 2.01 0.34 1.02 0 0 Z " fill="#EBEBEB" transform="translate(18,53)"/>
<path d="M0 0 C0.66 0 1.32 0 2 0 C1.67 0.99 1.34 1.98 1 3 C0.67 2.01 0.34 1.02 0 0 Z " fill="#E9E9E9" transform="translate(90,50)"/>
<path d="M0 0 C0.66 0 1.32 0 2 0 C1.67 0.99 1.34 1.98 1 3 C0.67 2.01 0.34 1.02 0 0 Z " fill="#E9E9E9" transform="translate(83,50)"/>
<path d="M0 0 C0.66 0 1.32 0 2 0 C1.67 0.99 1.34 1.98 1 3 C0.67 2.01 0.34 1.02 0 0 Z " fill="#EAEAEA" transform="translate(73,50)"/>
<path d="M0 0 C0.66 0 1.32 0 2 0 C1.67 0.99 1.34 1.98 1 3 C0.67 2.01 0.34 1.02 0 0 Z " fill="#EAEAEA" transform="translate(23,50)"/>
<path d="M0 0 C0.66 0 1.32 0 2 0 C1.67 0.99 1.34 1.98 1 3 C0.67 2.01 0.34 1.02 0 0 Z " fill="#EAEAEA" transform="translate(20,50)"/>
<path d="M0 0 C0.66 0 1.32 0 2 0 C1.67 0.99 1.34 1.98 1 3 C0.67 2.01 0.34 1.02 0 0 Z " fill="#EAEAEA" transform="translate(13,50)"/>
<path d="M0 0 C0.66 0 1.32 0 2 0 C1.67 0.99 1.34 1.98 1 3 C0.67 2.01 0.34 1.02 0 0 Z " fill="#E9E9E9" transform="translate(10,50)"/>
<path d="M0 0 C0.66 0 1.32 0 2 0 C1.67 0.99 1.34 1.98 1 3 C0.67 2.01 0.34 1.02 0 0 Z " fill="#E9E9E9" transform="translate(0,50)"/>
<path d="M0 0 C0.66 0 1.32 0 2 0 C1.67 0.99 1.34 1.98 1 3 C0.67 2.01 0.34 1.02 0 0 Z " fill="#EBEBEB" transform="translate(80,50)"/>
<path d="M0 0 C0.66 0 1.32 0 2 0 C1.67 0.99 1.34 1.98 1 3 C0.67 2.01 0.34 1.02 0 0 Z " fill="#EAEAEA" transform="translate(75,47)"/>
<path d="M0 0 C0.66 0 1.32 0 2 0 C1.67 0.99 1.34 1.98 1 3 C0.67 2.01 0.34 1.02 0 0 Z " fill="#EAEAEA" transform="translate(25,47)"/>
<path d="M0 0 C0.66 0 1.32 0 2 0 C1.67 0.99 1.34 1.98 1 3 C0.67 2.01 0.34 1.02 0 0 Z " fill="#EAEAEA" transform="translate(8,47)"/>
<path d="M0 0 C0.66 0 1.32 0 2 0 C1.67 0.99 1.34 1.98 1 3 C0.67 2.01 0.34 1.02 0 0 Z " fill="#EBEBEB" transform="translate(18,47)"/>
<path d="M0 0 C0.66 0 1.32 0 2 0 C1.67 0.99 1.34 1.98 1 3 C0.67 2.01 0.34 1.02 0 0 Z " fill="#EAEAEA" transform="translate(90,44)"/>
<path d="M0 0 C0.66 0 1.32 0 2 0 C1.67 0.99 1.34 1.98 1 3 C0.67 2.01 0.34 1.02 0 0 Z " fill="#EAEAEA" transform="translate(13,44)"/>
<path d="M0 0 C0.99 0.495 0.99 0.495 2 1 C2 1.66 2 2.32 2 3 C1.34 3 0.68 3 0 3 C0 2.01 0 1.02 0 0 Z " fill="#E8E8E8" transform="translate(0,44)"/>
<path d="M0 0 C0.33 0.99 0.66 1.98 1 3 C0.34 3 -0.32 3 -1 3 C-0.67 2.01 -0.34 1.02 0 0 Z " fill="#E9E9E9" transform="translate(94,38)"/>
<path d="M0 0 C0.99 0.495 0.99 0.495 2 1 C2 1.66 2 2.32 2 3 C1.34 3 0.68 3 0 3 C0 2.01 0 1.02 0 0 Z " fill="#EBEBEB" transform="translate(80,38)"/>
<path d="M0 0 C0.33 0.99 0.66 1.98 1 3 C0.34 3 -0.32 3 -1 3 C-0.67 2.01 -0.34 1.02 0 0 Z " fill="#E9E9E9" transform="translate(24,38)"/>
<path d="M0 0 C0.33 0.99 0.66 1.98 1 3 C0.34 3 -0.32 3 -1 3 C-0.67 2.01 -0.34 1.02 0 0 Z " fill="#E9E9E9" transform="translate(14,38)"/>
<path d="M0 0 C0.99 0.495 0.99 0.495 2 1 C2 1.66 2 2.32 2 3 C1.34 3 0.68 3 0 3 C0 2.01 0 1.02 0 0 Z " fill="#E9E9E9" transform="translate(10,38)"/>
<path d="M0 0 C0.99 0.495 0.99 0.495 2 1 C2 1.66 2 2.32 2 3 C1.34 3 0.68 3 0 3 C0 2.01 0 1.02 0 0 Z " fill="#E9E9E9" transform="translate(0,38)"/>
<path d="M0 0 C0.33 0.99 0.66 1.98 1 3 C0.34 3 -0.32 3 -1 3 C-0.67 2.01 -0.34 1.02 0 0 Z " fill="#E9E9E9" transform="translate(99,35)"/>
<path d="M0 0 C0.33 0.99 0.66 1.98 1 3 C0.34 3 -0.32 3 -1 3 C-0.67 2.01 -0.34 1.02 0 0 Z " fill="#E9E9E9" transform="translate(89,35)"/>
<path d="M0 0 C0.99 0.495 0.99 0.495 2 1 C2 1.66 2 2.32 2 3 C1.34 3 0.68 3 0 3 C0 2.01 0 1.02 0 0 Z " fill="#EAEAEA" transform="translate(85,35)"/>
<path d="M0 0 C0.33 0.99 0.66 1.98 1 3 C0.34 3 -0.32 3 -1 3 C-0.67 2.01 -0.34 1.02 0 0 Z " fill="#E9E9E9" transform="translate(79,35)"/>
<path d="M0 0 C0.99 0.495 0.99 0.495 2 1 C2 1.66 2 2.32 2 3 C1.34 3 0.68 3 0 3 C0 2.01 0 1.02 0 0 Z " fill="#E9E9E9" transform="translate(15,35)"/>
<path d="M0 0 C0.99 0.495 0.99 0.495 2 1 C2 1.66 2 2.32 2 3 C1.34 3 0.68 3 0 3 C0 2.01 0 1.02 0 0 Z " fill="#E9E9E9" transform="translate(5,35)"/>
<path d="M0 0 C0.33 0.99 0.66 1.98 1 3 C0.34 3 -0.32 3 -1 3 C-0.67 2.01 -0.34 1.02 0 0 Z " fill="#EAEAEA" transform="translate(19,35)"/>
<path d="M0 0 C0.33 0.99 0.66 1.98 1 3 C0.34 3 -0.32 3 -1 3 C-0.67 2.01 -0.34 1.02 0 0 Z " fill="#EAEAEA" transform="translate(94,32)"/>
<path d="M0 0 C0.33 0.99 0.66 1.98 1 3 C0.34 3 -0.32 3 -1 3 C-0.67 2.01 -0.34 1.02 0 0 Z " fill="#EAEAEA" transform="translate(84,32)"/>
<path d="M0 0 C0.99 0.495 0.99 0.495 2 1 C2 1.66 2 2.32 2 3 C1.34 3 0.68 3 0 3 C0 2.01 0 1.02 0 0 Z " fill="#EAEAEA" transform="translate(80,32)"/>
<path d="M0 0 C0.33 0.99 0.66 1.98 1 3 C0.34 3 -0.32 3 -1 3 C-0.67 2.01 -0.34 1.02 0 0 Z " fill="#EAEAEA" transform="translate(24,32)"/>
<path d="M0 0 C0.99 0.495 0.99 0.495 2 1 C2 1.66 2 2.32 2 3 C1.34 3 0.68 3 0 3 C0 2.01 0 1.02 0 0 Z " fill="#EAEAEA" transform="translate(20,32)"/>
<path d="M0 0 C0.33 0.99 0.66 1.98 1 3 C0.34 3 -0.32 3 -1 3 C-0.67 2.01 -0.34 1.02 0 0 Z " fill="#EAEAEA" transform="translate(14,32)"/>
<path d="M0 0 C0.99 0.495 0.99 0.495 2 1 C2 1.66 2 2.32 2 3 C1.34 3 0.68 3 0 3 C0 2.01 0 1.02 0 0 Z " fill="#EAEAEA" transform="translate(10,32)"/>
<path d="M0 0 C0.99 0.495 0.99 0.495 2 1 C2 1.66 2 2.32 2 3 C1.34 3 0.68 3 0 3 C0 2.01 0 1.02 0 0 Z " fill="#EAEAEA" transform="translate(0,32)"/>
<path d="M0 0 C0.33 0.99 0.66 1.98 1 3 C0.34 3 -0.32 3 -1 3 C-0.67 2.01 -0.34 1.02 0 0 Z " fill="#EAEAEA" transform="translate(99,29)"/>
<path d="M0 0 C0.33 0.99 0.66 1.98 1 3 C0.34 3 -0.32 3 -1 3 C-0.67 2.01 -0.34 1.02 0 0 Z " fill="#EAEAEA" transform="translate(89,29)"/>
<path d="M0 0 C0.99 0.495 0.99 0.495 2 1 C2 1.66 2 2.32 2 3 C1.34 3 0.68 3 0 3 C0 2.01 0 1.02 0 0 Z " fill="#EAEAEA" transform="translate(85,29)"/>
<path d="M0 0 C0.33 0.99 0.66 1.98 1 3 C0.34 3 -0.32 3 -1 3 C-0.67 2.01 -0.34 1.02 0 0 Z " fill="#EAEAEA" transform="translate(79,29)"/>
<path d="M0 0 C0.33 0.99 0.66 1.98 1 3 C0.34 3 -0.32 3 -1 3 C-0.67 2.01 -0.34 1.02 0 0 Z " fill="#EAEAEA" transform="translate(19,29)"/>
<path d="M0 0 C0.99 0.495 0.99 0.495 2 1 C2 1.66 2 2.32 2 3 C1.34 3 0.68 3 0 3 C0 2.01 0 1.02 0 0 Z " fill="#EAEAEA" transform="translate(15,29)"/>
<path d="M0 0 C0.99 0.495 0.99 0.495 2 1 C2 1.66 2 2.32 2 3 C1.34 3 0.68 3 0 3 C0 2.01 0 1.02 0 0 Z " fill="#EAEAEA" transform="translate(5,29)"/>
<path d="M0 0 C0.66 0 1.32 0 2 0 C1.67 0.99 1.34 1.98 1 3 C0.67 2.01 0.34 1.02 0 0 Z " fill="#E9E9E9" transform="translate(93,15)"/>
<path d="M0 0 C0.66 0 1.32 0 2 0 C1.67 0.99 1.34 1.98 1 3 C0.67 2.01 0.34 1.02 0 0 Z " fill="#EAEAEA" transform="translate(83,15)"/>
<path d="M0 0 C0.66 0 1.32 0 2 0 C1.67 0.99 1.34 1.98 1 3 C0.67 2.01 0.34 1.02 0 0 Z " fill="#EAEAEA" transform="translate(80,15)"/>
<path d="M0 0 C0.66 0 1.32 0 2 0 C1.67 0.99 1.34 1.98 1 3 C0.67 2.01 0.34 1.02 0 0 Z " fill="#EAEAEA" transform="translate(73,15)"/>
<path d="M0 0 C0.66 0 1.32 0 2 0 C1.67 0.99 1.34 1.98 1 3 C0.67 2.01 0.34 1.02 0 0 Z " fill="#EAEAEA" transform="translate(70,15)"/>
<path d="M0 0 C0.66 0 1.32 0 2 0 C1.67 0.99 1.34 1.98 1 3 C0.67 2.01 0.34 1.02 0 0 Z " fill="#EAEAEA" transform="translate(23,15)"/>
<path d="M0 0 C0.66 0 1.32 0 2 0 C1.67 0.99 1.34 1.98 1 3 C0.67 2.01 0.34 1.02 0 0 Z " fill="#EAEAEA" transform="translate(20,15)"/>
<path d="M0 0 C0.66 0 1.32 0 2 0 C1.67 0.99 1.34 1.98 1 3 C0.67 2.01 0.34 1.02 0 0 Z " fill="#EAEAEA" transform="translate(10,15)"/>
<path d="M0 0 C0.66 0 1.32 0 2 0 C1.67 0.99 1.34 1.98 1 3 C0.67 2.01 0.34 1.02 0 0 Z " fill="#E9E9E9" transform="translate(3,15)"/>
<path d="M0 0 C0.66 0 1.32 0 2 0 C1.67 0.99 1.34 1.98 1 3 C0.67 2.01 0.34 1.02 0 0 Z " fill="#E9E9E9" transform="translate(0,15)"/>
<path d="M0 0 C0.66 0 1.32 0 2 0 C1.67 0.99 1.34 1.98 1 3 C0.67 2.01 0.34 1.02 0 0 Z " fill="#EAEAEA" transform="translate(98,12)"/>
<path d="M0 0 C0.66 0 1.32 0 2 0 C1.67 0.99 1.34 1.98 1 3 C0.67 2.01 0.34 1.02 0 0 Z " fill="#EAEAEA" transform="translate(88,12)"/>
<path d="M0 0 C0.66 0 1.32 0 2 0 C1.67 0.99 1.34 1.98 1 3 C0.67 2.01 0.34 1.02 0 0 Z " fill="#EAEAEA" transform="translate(85,12)"/>
<path d="M0 0 C0.66 0 1.32 0 2 0 C1.67 0.99 1.34 1.98 1 3 C0.67 2.01 0.34 1.02 0 0 Z " fill="#EAEAEA" transform="translate(78,12)"/>
<path d="M0 0 C0.66 0 1.32 0 2 0 C1.67 0.99 1.34 1.98 1 3 C0.67 2.01 0.34 1.02 0 0 Z " fill="#EAEAEA" transform="translate(75,12)"/>
<path d="M0 0 C0.66 0 1.32 0 2 0 C1.67 0.99 1.34 1.98 1 3 C0.67 2.01 0.34 1.02 0 0 Z " fill="#EAEAEA" transform="translate(28,12)"/>
<path d="M0 0 C0.66 0 1.32 0 2 0 C1.67 0.99 1.34 1.98 1 3 C0.67 2.01 0.34 1.02 0 0 Z " fill="#EAEAEA" transform="translate(25,12)"/>
<path d="M0 0 C0.66 0 1.32 0 2 0 C1.67 0.99 1.34 1.98 1 3 C0.67 2.01 0.34 1.02 0 0 Z " fill="#EAEAEA" transform="translate(18,12)"/>
<path d="M0 0 C0.66 0 1.32 0 2 0 C1.67 0.99 1.34 1.98 1 3 C0.67 2.01 0.34 1.02 0 0 Z " fill="#EAEAEA" transform="translate(15,12)"/>
<path d="M0 0 C0.66 0 1.32 0 2 0 C1.67 0.99 1.34 1.98 1 3 C0.67 2.01 0.34 1.02 0 0 Z " fill="#EAEAEA" transform="translate(8,12)"/>
<path d="M0 0 C0.66 0 1.32 0 2 0 C1.67 0.99 1.34 1.98 1 3 C0.67 2.01 0.34 1.02 0 0 Z " fill="#E9E9E9" transform="translate(5,12)"/>
<path d="M0 0 C0.66 0 1.32 0 2 0 C1.67 0.99 1.34 1.98 1 3 C0.67 2.01 0.34 1.02 0 0 Z " fill="#E9E9E9" transform="translate(93,9)"/>
<path d="M0 0 C0.66 0 1.32 0 2 0 C1.67 0.99 1.34 1.98 1 3 C0.67 2.01 0.34 1.02 0 0 Z " fill="#EAEAEA" transform="translate(90,9)"/>
<path d="M0 0 C0.66 0 1.32 0 2 0 C1.67 0.99 1.34 1.98 1 3 C0.67 2.01 0.34 1.02 0 0 Z " fill="#EAEAEA" transform="translate(83,9)"/>
<path d="M0 0 C0.66 0 1.32 0 2 0 C1.67 0.99 1.34 1.98 1 3 C0.67 2.01 0.34 1.02 0 0 Z " fill="#EAEAEA" transform="translate(13,9)"/>
<path d="M0 0 C0.66 0 1.32 0 2 0 C1.67 0.99 1.34 1.98 1 3 C0.67 2.01 0.34 1.02 0 0 Z " fill="#E9E9E9" transform="translate(10,9)"/>
<path d="M0 0 C0.66 0 1.32 0 2 0 C1.67 0.99 1.34 1.98 1 3 C0.67 2.01 0.34 1.02 0 0 Z " fill="#EAEAEA" transform="translate(0,9)"/>
<path d="M0 0 C0.66 0 1.32 0 2 0 C1.67 0.99 1.34 1.98 1 3 C0.67 2.01 0.34 1.02 0 0 Z " fill="#EAEAEA" transform="translate(80,9)"/>
<path d="M0 0 C0.66 0 1.32 0 2 0 C1.67 0.99 1.34 1.98 1 3 C0.67 2.01 0.34 1.02 0 0 Z " fill="#EAEAEA" transform="translate(30,9)"/>
<path d="M0 0 C0.66 0 1.32 0 2 0 C1.67 0.99 1.34 1.98 1 3 C0.67 2.01 0.34 1.02 0 0 Z " fill="#E9E9E9" transform="translate(98,6)"/>
<path d="M0 0 C0.66 0 1.32 0 2 0 C1.67 0.99 1.34 1.98 1 3 C0.67 2.01 0.34 1.02 0 0 Z " fill="#E9E9E9" transform="translate(88,6)"/>
<path d="M0 0 C0.66 0 1.32 0 2 0 C1.67 0.99 1.34 1.98 1 3 C0.67 2.01 0.34 1.02 0 0 Z " fill="#E9E9E9" transform="translate(15,6)"/>
<path d="M0 0 C0.66 0 1.32 0 2 0 C1.67 0.99 1.34 1.98 1 3 C0.67 2.01 0.34 1.02 0 0 Z " fill="#E9E9E9" transform="translate(8,6)"/>
<path d="M0 0 C0.66 0 1.32 0 2 0 C1.67 0.99 1.34 1.98 1 3 C0.67 2.01 0.34 1.02 0 0 Z " fill="#E9E9E9" transform="translate(5,6)"/>
<path d="M0 0 C0.66 0 1.32 0 2 0 C1.67 0.99 1.34 1.98 1 3 C0.67 2.01 0.34 1.02 0 0 Z " fill="#EAEAEA" transform="translate(68,6)"/>
<path d="M0 0 C0.66 0 1.32 0 2 0 C1.67 0.99 1.34 1.98 1 3 C0.67 2.01 0.34 1.02 0 0 Z " fill="#EAEAEA" transform="translate(18,6)"/>
<path d="M0 0 C0.66 0 1.32 0 2 0 C2 0.66 2 1.32 2 2 C1.34 2 0.68 2 0 2 C0 1.34 0 0.68 0 0 Z " fill="#E9E9E9" transform="translate(93,97)"/>
<path d="M0 0 C0.66 0 1.32 0 2 0 C2 0.66 2 1.32 2 2 C1.34 2 0.68 2 0 2 C0 1.34 0 0.68 0 0 Z " fill="#E9E9E9" transform="translate(83,97)"/>
<path d="M0 0 C0.66 0 1.32 0 2 0 C2 0.66 2 1.32 2 2 C1.34 2 0.68 2 0 2 C0 1.34 0 0.68 0 0 Z " fill="#E9E9E9" transform="translate(80,97)"/>
<path d="M0 0 C0.66 0 1.32 0 2 0 C2 0.66 2 1.32 2 2 C1.34 2 0.68 2 0 2 C0 1.34 0 0.68 0 0 Z " fill="#E9E9E9" transform="translate(73,97)"/>
<path d="M0 0 C0.66 0 1.32 0 2 0 C2 0.66 2 1.32 2 2 C1.34 2 0.68 2 0 2 C0 1.34 0 0.68 0 0 Z " fill="#E9E9E9" transform="translate(70,97)"/>
<path d="M0 0 C0.66 0 1.32 0 2 0 C2 0.66 2 1.32 2 2 C1.34 2 0.68 2 0 2 C0 1.34 0 0.68 0 0 Z " fill="#E9E9E9" transform="translate(50,97)"/>
<path d="M0 0 C0.66 0 1.32 0 2 0 C2 0.66 2 1.32 2 2 C1.34 2 0.68 2 0 2 C0 1.34 0 0.68 0 0 Z " fill="#E9E9E9" transform="translate(43,97)"/>
<path d="M0 0 C0.66 0 1.32 0 2 0 C2 0.66 2 1.32 2 2 C1.34 2 0.68 2 0 2 C0 1.34 0 0.68 0 0 Z " fill="#E9E9E9" transform="translate(33,97)"/>
<path d="M0 0 C0.66 0 1.32 0 2 0 C2 0.66 2 1.32 2 2 C1.34 2 0.68 2 0 2 C0 1.34 0 0.68 0 0 Z " fill="#E9E9E9" transform="translate(30,97)"/>
<path d="M0 0 C0.66 0 1.32 0 2 0 C2 0.66 2 1.32 2 2 C1.34 2 0.68 2 0 2 C0 1.34 0 0.68 0 0 Z " fill="#E9E9E9" transform="translate(23,97)"/>
<path d="M0 0 C0.66 0 1.32 0 2 0 C2 0.66 2 1.32 2 2 C1.34 2 0.68 2 0 2 C0 1.34 0 0.68 0 0 Z " fill="#E9E9E9" transform="translate(20,97)"/>
<path d="M0 0 C0.66 0 1.32 0 2 0 C2 0.66 2 1.32 2 2 C1.34 2 0.68 2 0 2 C0 1.34 0 0.68 0 0 Z " fill="#E9E9E9" transform="translate(13,97)"/>
<path d="M0 0 C0.66 0 1.32 0 2 0 C2 0.66 2 1.32 2 2 C1.34 2 0.68 2 0 2 C0 1.34 0 0.68 0 0 Z " fill="#E9E9E9" transform="translate(10,97)"/>
<path d="M0 0 C0.66 0 1.32 0 2 0 C2 0.66 2 1.32 2 2 C1.34 2 0.68 2 0 2 C0 1.34 0 0.68 0 0 Z " fill="#E9E9E9" transform="translate(0,97)"/>
<path d="M0 0 C0.99 0.495 0.99 0.495 2 1 C1.34 1.66 0.68 2.32 0 3 C0 2.01 0 1.02 0 0 Z " fill="#E9E9E9" transform="translate(95,94)"/>
<path d="M0 0 C0.99 0.495 0.99 0.495 2 1 C1.34 1.66 0.68 2.32 0 3 C0 2.01 0 1.02 0 0 Z " fill="#E9E9E9" transform="translate(45,94)"/>
<path d="M0 0 C0 3 0 3 0 3 Z " fill="#E9E9E9" transform="translate(9,94)"/>
<path d="M0 0 C0.66 0.66 1.32 1.32 2 2 C1.01 2.495 1.01 2.495 0 3 C0 2.01 0 1.02 0 0 Z " fill="#E9E9E9" transform="translate(90,91)"/>
<path d="M0 0 C0.66 0.66 1.32 1.32 2 2 C1.01 2.495 1.01 2.495 0 3 C0 2.01 0 1.02 0 0 Z " fill="#E9E9E9" transform="translate(40,91)"/>
<path d="M0 0 C0.66 0 1.32 0 2 0 C1.67 0.99 1.34 1.98 1 3 C0.67 2.01 0.34 1.02 0 0 Z " fill="#E9E9E9" transform="translate(53,91)"/>
<path d="M0 0 C0.66 0 1.32 0 2 0 C1.67 0.99 1.34 1.98 1 3 C0.67 2.01 0.34 1.02 0 0 Z " fill="#E9E9E9" transform="translate(3,91)"/>
<path d="M0 0 C0 3 0 3 0 3 Z " fill="#E9E9E9" transform="translate(9,88)"/>
<path d="M0 0 C0.66 0.66 1.32 1.32 2 2 C1.01 2.495 1.01 2.495 0 3 C0 2.01 0 1.02 0 0 Z " fill="#E9E9E9" transform="translate(90,85)"/>
<path d="M0 0 C0.66 0.66 1.32 1.32 2 2 C1.01 2.495 1.01 2.495 0 3 C0 2.01 0 1.02 0 0 Z " fill="#E9E9E9" transform="translate(85,82)"/>
<path d="M0 0 C0 3 0 3 0 3 Z " fill="#E9E9E9" transform="translate(9,82)"/>
<path d="M0 0 C0.66 0.66 1.32 1.32 2 2 C1.01 2.495 1.01 2.495 0 3 C0 2.01 0 1.02 0 0 Z " fill="#E9E9E9" transform="translate(90,79)"/>
<path d="M0 0 C0.66 0.66 1.32 1.32 2 2 C1.01 2.495 1.01 2.495 0 3 C0 2.01 0 1.02 0 0 Z " fill="#EAEAEA" transform="translate(80,79)"/>
<path d="M0 0 C0 3 0 3 0 3 Z " fill="#E9E9E9" transform="translate(14,79)"/>
<path d="M0 0 C0 3 0 3 0 3 Z " fill="#E9E9E9" transform="translate(9,76)"/>
<path d="M0 0 C0.66 0 1.32 0 2 0 C2 0.66 2 1.32 2 2 C1.34 2 0.68 2 0 2 C0 1.34 0 0.68 0 0 Z " fill="#E9E9E9" transform="translate(93,68)"/>
<path d="M0 0 C0.66 0 1.32 0 2 0 C2 0.66 2 1.32 2 2 C1.34 2 0.68 2 0 2 C0 1.34 0 0.68 0 0 Z " fill="#E9E9E9" transform="translate(90,68)"/>
<path d="M0 0 C0.66 0 1.32 0 2 0 C2 0.66 2 1.32 2 2 C1.34 2 0.68 2 0 2 C0 1.34 0 0.68 0 0 Z " fill="#E9E9E9" transform="translate(83,68)"/>
<path d="M0 0 C0.66 0 1.32 0 2 0 C2 0.66 2 1.32 2 2 C1.34 2 0.68 2 0 2 C0 1.34 0 0.68 0 0 Z " fill="#E9E9E9" transform="translate(70,68)"/>
<path d="M0 0 C0.66 0 1.32 0 2 0 C2 0.66 2 1.32 2 2 C1.34 2 0.68 2 0 2 C0 1.34 0 0.68 0 0 Z " fill="#E9E9E9" transform="translate(50,68)"/>
<path d="M0 0 C0.66 0 1.32 0 2 0 C2 0.66 2 1.32 2 2 C1.34 2 0.68 2 0 2 C0 1.34 0 0.68 0 0 Z " fill="#E9E9E9" transform="translate(43,68)"/>
<path d="M0 0 C0.66 0 1.32 0 2 0 C2 0.66 2 1.32 2 2 C1.34 2 0.68 2 0 2 C0 1.34 0 0.68 0 0 Z " fill="#E9E9E9" transform="translate(40,68)"/>
<path d="M0 0 C0.66 0 1.32 0 2 0 C2 0.66 2 1.32 2 2 C1.34 2 0.68 2 0 2 C0 1.34 0 0.68 0 0 Z " fill="#E9E9E9" transform="translate(33,68)"/>
<path d="M0 0 C0.66 0 1.32 0 2 0 C2 0.66 2 1.32 2 2 C1.34 2 0.68 2 0 2 C0 1.34 0 0.68 0 0 Z " fill="#E9E9E9" transform="translate(23,68)"/>
<path d="M0 0 C0.66 0 1.32 0 2 0 C2 0.66 2 1.32 2 2 C1.34 2 0.68 2 0 2 C0 1.34 0 0.68 0 0 Z " fill="#E9E9E9" transform="translate(20,68)"/>
<path d="M0 0 C0.66 0 1.32 0 2 0 C2 0.66 2 1.32 2 2 C1.34 2 0.68 2 0 2 C0 1.34 0 0.68 0 0 Z " fill="#E9E9E9" transform="translate(13,68)"/>
<path d="M0 0 C0.66 0 1.32 0 2 0 C2 0.66 2 1.32 2 2 C1.34 2 0.68 2 0 2 C0 1.34 0 0.68 0 0 Z " fill="#E9E9E9" transform="translate(10,68)"/>
<path d="M0 0 C0.66 0 1.32 0 2 0 C2 0.66 2 1.32 2 2 C1.34 2 0.68 2 0 2 C0 1.34 0 0.68 0 0 Z " fill="#E9E9E9" transform="translate(0,68)"/>
<path d="M0 0 C0.66 0 1.32 0 2 0 C2 0.66 2 1.32 2 2 C1.34 2 0.68 2 0 2 C0 1.34 0 0.68 0 0 Z " fill="#EBEBEB" transform="translate(80,68)"/>
<path d="M0 0 C0.66 0 1.32 0 2 0 C2 0.66 2 1.32 2 2 C1.34 2 0.68 2 0 2 C0 1.34 0 0.68 0 0 Z " fill="#EBEBEB" transform="translate(30,68)"/>
<path d="M0 0 C0.66 0 1.32 0 2 0 C2 0.66 2 1.32 2 2 C1.34 2 0.68 2 0 2 C0 1.34 0 0.68 0 0 Z " fill="#E9E9E9" transform="translate(98,65)"/>
<path d="M0 0 C0.66 0 1.32 0 2 0 C2 0.66 2 1.32 2 2 C1.34 2 0.68 2 0 2 C0 1.34 0 0.68 0 0 Z " fill="#E9E9E9" transform="translate(88,65)"/>
<path d="M0 0 C0.66 0 1.32 0 2 0 C2 0.66 2 1.32 2 2 C1.34 2 0.68 2 0 2 C0 1.34 0 0.68 0 0 Z " fill="#E9E9E9" transform="translate(85,65)"/>
<path d="M0 0 C0.66 0 1.32 0 2 0 C2 0.66 2 1.32 2 2 C1.34 2 0.68 2 0 2 C0 1.34 0 0.68 0 0 Z " fill="#E9E9E9" transform="translate(78,65)"/>
<path d="M0 0 C0.66 0 1.32 0 2 0 C2 0.66 2 1.32 2 2 C1.34 2 0.68 2 0 2 C0 1.34 0 0.68 0 0 Z " fill="#E9E9E9" transform="translate(65,65)"/>
<path d="M0 0 C0.66 0 1.32 0 2 0 C2 0.66 2 1.32 2 2 C1.34 2 0.68 2 0 2 C0 1.34 0 0.68 0 0 Z " fill="#E9E9E9" transform="translate(38,65)"/>
<path d="M0 0 C0.66 0 1.32 0 2 0 C2 0.66 2 1.32 2 2 C1.34 2 0.68 2 0 2 C0 1.34 0 0.68 0 0 Z " fill="#E9E9E9" transform="translate(35,65)"/>
<path d="M0 0 C0.66 0 1.32 0 2 0 C2 0.66 2 1.32 2 2 C1.34 2 0.68 2 0 2 C0 1.34 0 0.68 0 0 Z " fill="#E9E9E9" transform="translate(28,65)"/>
<path d="M0 0 C0.66 0 1.32 0 2 0 C2 0.66 2 1.32 2 2 C1.34 2 0.68 2 0 2 C0 1.34 0 0.68 0 0 Z " fill="#E9E9E9" transform="translate(25,65)"/>
<path d="M0 0 C0.66 0 1.32 0 2 0 C2 0.66 2 1.32 2 2 C1.34 2 0.68 2 0 2 C0 1.34 0 0.68 0 0 Z " fill="#E9E9E9" transform="translate(15,65)"/>
<path d="M0 0 C0.66 0 1.32 0 2 0 C2 0.66 2 1.32 2 2 C1.34 2 0.68 2 0 2 C0 1.34 0 0.68 0 0 Z " fill="#E9E9E9" transform="translate(8,65)"/>
<path d="M0 0 C0.66 0 1.32 0 2 0 C2 0.66 2 1.32 2 2 C1.34 2 0.68 2 0 2 C0 1.34 0 0.68 0 0 Z " fill="#E9E9E9" transform="translate(5,65)"/>
<path d="M0 0 C0.66 0 1.32 0 2 0 C2 0.66 2 1.32 2 2 C1.34 2 0.68 2 0 2 C0 1.34 0 0.68 0 0 Z " fill="#EBEBEB" transform="translate(68,65)"/>
<path d="M0 0 C0.66 0 1.32 0 2 0 C2 0.66 2 1.32 2 2 C1.34 2 0.68 2 0 2 C0 1.34 0 0.68 0 0 Z " fill="#EBEBEB" transform="translate(18,65)"/>
<path d="M0 0 C0.66 0 1.32 0 2 0 C2 0.66 2 1.32 2 2 C1.34 2 0.68 2 0 2 C0 1.34 0 0.68 0 0 Z " fill="#E9E9E9" transform="translate(93,62)"/>
<path d="M0 0 C0.66 0 1.32 0 2 0 C2 0.66 2 1.32 2 2 C1.34 2 0.68 2 0 2 C0 1.34 0 0.68 0 0 Z " fill="#E9E9E9" transform="translate(90,62)"/>
<path d="M0 0 C0.66 0 1.32 0 2 0 C2 0.66 2 1.32 2 2 C1.34 2 0.68 2 0 2 C0 1.34 0 0.68 0 0 Z " fill="#E9E9E9" transform="translate(83,62)"/>
<path d="M0 0 C0.66 0 1.32 0 2 0 C2 0.66 2 1.32 2 2 C1.34 2 0.68 2 0 2 C0 1.34 0 0.68 0 0 Z " fill="#E9E9E9" transform="translate(43,62)"/>
<path d="M0 0 C0.66 0 1.32 0 2 0 C2 0.66 2 1.32 2 2 C1.34 2 0.68 2 0 2 C0 1.34 0 0.68 0 0 Z " fill="#E9E9E9" transform="translate(40,62)"/>
<path d="M0 0 C0.66 0 1.32 0 2 0 C2 0.66 2 1.32 2 2 C1.34 2 0.68 2 0 2 C0 1.34 0 0.68 0 0 Z " fill="#E9E9E9" transform="translate(33,62)"/>
<path d="M0 0 C0.66 0 1.32 0 2 0 C2 0.66 2 1.32 2 2 C1.34 2 0.68 2 0 2 C0 1.34 0 0.68 0 0 Z " fill="#E9E9E9" transform="translate(23,62)"/>
<path d="M0 0 C0.66 0 1.32 0 2 0 C2 0.66 2 1.32 2 2 C1.34 2 0.68 2 0 2 C0 1.34 0 0.68 0 0 Z " fill="#E9E9E9" transform="translate(20,62)"/>
<path d="M0 0 C0.66 0 1.32 0 2 0 C2 0.66 2 1.32 2 2 C1.34 2 0.68 2 0 2 C0 1.34 0 0.68 0 0 Z " fill="#E9E9E9" transform="translate(13,62)"/>
<path d="M0 0 C0.66 0 1.32 0 2 0 C2 0.66 2 1.32 2 2 C1.34 2 0.68 2 0 2 C0 1.34 0 0.68 0 0 Z " fill="#E9E9E9" transform="translate(10,62)"/>
<path d="M0 0 C0.66 0 1.32 0 2 0 C2 0.66 2 1.32 2 2 C1.34 2 0.68 2 0 2 C0 1.34 0 0.68 0 0 Z " fill="#E9E9E9" transform="translate(0,62)"/>
<path d="M0 0 C0.66 0 1.32 0 2 0 C2 0.66 2 1.32 2 2 C1.34 2 0.68 2 0 2 C0 1.34 0 0.68 0 0 Z " fill="#EBEBEB" transform="translate(80,62)"/>
<path d="M0 0 C0.66 0 1.32 0 2 0 C2 0.66 2 1.32 2 2 C1.34 2 0.68 2 0 2 C0 1.34 0 0.68 0 0 Z " fill="#EBEBEB" transform="translate(30,62)"/>
<path d="M0 0 C0.66 0 1.32 0 2 0 C2 0.66 2 1.32 2 2 C1.34 2 0.68 2 0 2 C0 1.34 0 0.68 0 0 Z " fill="#E9E9E9" transform="translate(98,59)"/>
<path d="M0 0 C0.66 0 1.32 0 2 0 C2 0.66 2 1.32 2 2 C1.34 2 0.68 2 0 2 C0 1.34 0 0.68 0 0 Z " fill="#E9E9E9" transform="translate(88,59)"/>
<path d="M0 0 C0.66 0 1.32 0 2 0 C2 0.66 2 1.32 2 2 C1.34 2 0.68 2 0 2 C0 1.34 0 0.68 0 0 Z " fill="#E9E9E9" transform="translate(85,59)"/>
<path d="M0 0 C0.66 0 1.32 0 2 0 C2 0.66 2 1.32 2 2 C1.34 2 0.68 2 0 2 C0 1.34 0 0.68 0 0 Z " fill="#E9E9E9" transform="translate(78,59)"/>
<path d="M0 0 C0.66 0 1.32 0 2 0 C2 0.66 2 1.32 2 2 C1.34 2 0.68 2 0 2 C0 1.34 0 0.68 0 0 Z " fill="#E9E9E9" transform="translate(75,59)"/>
<path d="M0 0 C0.66 0 1.32 0 2 0 C2 0.66 2 1.32 2 2 C1.34 2 0.68 2 0 2 C0 1.34 0 0.68 0 0 Z " fill="#E9E9E9" transform="translate(38,59)"/>
<path d="M0 0 C0.66 0 1.32 0 2 0 C2 0.66 2 1.32 2 2 C1.34 2 0.68 2 0 2 C0 1.34 0 0.68 0 0 Z " fill="#E9E9E9" transform="translate(35,59)"/>
<path d="M0 0 C0.66 0 1.32 0 2 0 C2 0.66 2 1.32 2 2 C1.34 2 0.68 2 0 2 C0 1.34 0 0.68 0 0 Z " fill="#E9E9E9" transform="translate(28,59)"/>
<path d="M0 0 C0.66 0 1.32 0 2 0 C2 0.66 2 1.32 2 2 C1.34 2 0.68 2 0 2 C0 1.34 0 0.68 0 0 Z " fill="#E9E9E9" transform="translate(25,59)"/>
<path d="M0 0 C0.66 0 1.32 0 2 0 C2 0.66 2 1.32 2 2 C1.34 2 0.68 2 0 2 C0 1.34 0 0.68 0 0 Z " fill="#E9E9E9" transform="translate(15,59)"/>
<path d="M0 0 C0.66 0 1.32 0 2 0 C2 0.66 2 1.32 2 2 C1.34 2 0.68 2 0 2 C0 1.34 0 0.68 0 0 Z " fill="#E9E9E9" transform="translate(8,59)"/>
<path d="M0 0 C0.66 0 1.32 0 2 0 C2 0.66 2 1.32 2 2 C1.34 2 0.68 2 0 2 C0 1.34 0 0.68 0 0 Z " fill="#E9E9E9" transform="translate(5,59)"/>
<path d="M0 0 C0.66 0 1.32 0 2 0 C2 0.66 2 1.32 2 2 C1.34 2 0.68 2 0 2 C0 1.34 0 0.68 0 0 Z " fill="#EBEBEB" transform="translate(18,59)"/>
<path d="M0 0 C0.66 0.66 1.32 1.32 2 2 C1.01 2.495 1.01 2.495 0 3 C0 2.01 0 1.02 0 0 Z " fill="#E9E9E9" transform="translate(85,47)"/>
<path d="M0 0 C0.66 0.66 1.32 1.32 2 2 C1.01 2.495 1.01 2.495 0 3 C0 2.01 0 1.02 0 0 Z " fill="#E9E9E9" transform="translate(85,41)"/>
<path d="M0 0 C0 3 0 3 0 3 Z " fill="#E8E8E8" transform="translate(9,41)"/>
<path d="M0 0 C0.66 0.66 1.32 1.32 2 2 C1.01 2.495 1.01 2.495 0 3 C0 2.01 0 1.02 0 0 Z " fill="#E9E9E9" transform="translate(90,38)"/>
<path d="M0 0 C0 3 0 3 0 3 Z " fill="#E9E9E9" transform="translate(9,35)"/>
<path d="M0 0 C0.33 0.99 0.66 1.98 1 3 C0.34 2.67 -0.32 2.34 -1 2 C-0.67 1.34 -0.34 0.68 0 0 Z " fill="#E9E9E9" transform="translate(4,32)"/>
<path d="M0 0 C0.66 0.66 1.32 1.32 2 2 C1.01 2.495 1.01 2.495 0 3 C0 2.01 0 1.02 0 0 Z " fill="#E9E9E9" transform="translate(90,32)"/>
<path d="M0 0 C0.99 1.485 0.99 1.485 2 3 C1.34 3 0.68 3 0 3 C0 2.01 0 1.02 0 0 Z " fill="#E9E9E9" transform="translate(95,29)"/>
<path d="M0 0 C0 3 0 3 0 3 Z " fill="#E9E9E9" transform="translate(9,29)"/>
<path d="M0 0 C0.66 0 1.32 0 2 0 C2 0.66 2 1.32 2 2 C1.34 2 0.68 2 0 2 C0 1.34 0 0.68 0 0 Z " fill="#E9E9E9" transform="translate(93,27)"/>
<path d="M0 0 C0.66 0 1.32 0 2 0 C2 0.66 2 1.32 2 2 C1.34 2 0.68 2 0 2 C0 1.34 0 0.68 0 0 Z " fill="#E9E9E9" transform="translate(83,27)"/>
<path d="M0 0 C0.66 0 1.32 0 2 0 C2 0.66 2 1.32 2 2 C1.34 2 0.68 2 0 2 C0 1.34 0 0.68 0 0 Z " fill="#E9E9E9" transform="translate(80,27)"/>
<path d="M0 0 C0.66 0 1.32 0 2 0 C2 0.66 2 1.32 2 2 C1.34 2 0.68 2 0 2 C0 1.34 0 0.68 0 0 Z " fill="#E9E9E9" transform="translate(23,27)"/>
<path d="M0 0 C0.66 0 1.32 0 2 0 C2 0.66 2 1.32 2 2 C1.34 2 0.68 2 0 2 C0 1.34 0 0.68 0 0 Z " fill="#E9E9E9" transform="translate(20,27)"/>
<path d="M0 0 C0.66 0 1.32 0 2 0 C2 0.66 2 1.32 2 2 C1.34 2 0.68 2 0 2 C0 1.34 0 0.68 0 0 Z " fill="#E9E9E9" transform="translate(13,27)"/>
<path d="M0 0 C0.66 0 1.32 0 2 0 C2 0.66 2 1.32 2 2 C1.34 2 0.68 2 0 2 C0 1.34 0 0.68 0 0 Z " fill="#E9E9E9" transform="translate(10,27)"/>
<path d="M0 0 C0.66 0 1.32 0 2 0 C2 0.66 2 1.32 2 2 C1.34 2 0.68 2 0 2 C0 1.34 0 0.68 0 0 Z " fill="#E9E9E9" transform="translate(0,27)"/>
<path d="M0 0 C0.66 0 1.32 0 2 0 C2 0.66 2 1.32 2 2 C1.34 2 0.68 2 0 2 C0 1.34 0 0.68 0 0 Z " fill="#E9E9E9" transform="translate(98,24)"/>
<path d="M0 0 C0.66 0 1.32 0 2 0 C2 0.66 2 1.32 2 2 C1.34 2 0.68 2 0 2 C0 1.34 0 0.68 0 0 Z " fill="#E9E9E9" transform="translate(88,24)"/>
<path d="M0 0 C0.66 0 1.32 0 2 0 C2 0.66 2 1.32 2 2 C1.34 2 0.68 2 0 2 C0 1.34 0 0.68 0 0 Z " fill="#E9E9E9" transform="translate(85,24)"/>
<path d="M0 0 C0.66 0 1.32 0 2 0 C2 0.66 2 1.32 2 2 C1.34 2 0.68 2 0 2 C0 1.34 0 0.68 0 0 Z " fill="#E9E9E9" transform="translate(78,24)"/>
<path d="M0 0 C0.66 0 1.32 0 2 0 C2 0.66 2 1.32 2 2 C1.34 2 0.68 2 0 2 C0 1.34 0 0.68 0 0 Z " fill="#E9E9E9" transform="translate(75,24)"/>
<path d="M0 0 C0.66 0 1.32 0 2 0 C2 0.66 2 1.32 2 2 C1.34 2 0.68 2 0 2 C0 1.34 0 0.68 0 0 Z " fill="#E9E9E9" transform="translate(25,24)"/>
<path d="M0 0 C0.66 0 1.32 0 2 0 C2 0.66 2 1.32 2 2 C1.34 2 0.68 2 0 2 C0 1.34 0 0.68 0 0 Z " fill="#E9E9E9" transform="translate(18,24)"/>
<path d="M0 0 C0.66 0 1.32 0 2 0 C2 0.66 2 1.32 2 2 C1.34 2 0.68 2 0 2 C0 1.34 0 0.68 0 0 Z " fill="#E9E9E9" transform="translate(15,24)"/>
<path d="M0 0 C0.66 0 1.32 0 2 0 C2 0.66 2 1.32 2 2 C1.34 2 0.68 2 0 2 C0 1.34 0 0.68 0 0 Z " fill="#E9E9E9" transform="translate(5,24)"/>
<path d="M0 0 C0.66 0 1.32 0 2 0 C2 0.66 2 1.32 2 2 C1.34 2 0.68 2 0 2 C0 1.34 0 0.68 0 0 Z " fill="#E9E9E9" transform="translate(93,21)"/>
<path d="M0 0 C0.66 0 1.32 0 2 0 C2 0.66 2 1.32 2 2 C1.34 2 0.68 2 0 2 C0 1.34 0 0.68 0 0 Z " fill="#E9E9E9" transform="translate(90,21)"/>
<path d="M0 0 C0.66 0 1.32 0 2 0 C2 0.66 2 1.32 2 2 C1.34 2 0.68 2 0 2 C0 1.34 0 0.68 0 0 Z " fill="#E9E9E9" transform="translate(83,21)"/>
<path d="M0 0 C0.66 0 1.32 0 2 0 C2 0.66 2 1.32 2 2 C1.34 2 0.68 2 0 2 C0 1.34 0 0.68 0 0 Z " fill="#E9E9E9" transform="translate(80,21)"/>
<path d="M0 0 C0.66 0 1.32 0 2 0 C2 0.66 2 1.32 2 2 C1.34 2 0.68 2 0 2 C0 1.34 0 0.68 0 0 Z " fill="#E9E9E9" transform="translate(73,21)"/>
<path d="M0 0 C0.66 0 1.32 0 2 0 C2 0.66 2 1.32 2 2 C1.34 2 0.68 2 0 2 C0 1.34 0 0.68 0 0 Z " fill="#E9E9E9" transform="translate(23,21)"/>
<path d="M0 0 C0.66 0 1.32 0 2 0 C2 0.66 2 1.32 2 2 C1.34 2 0.68 2 0 2 C0 1.34 0 0.68 0 0 Z " fill="#E9E9E9" transform="translate(20,21)"/>
<path d="M0 0 C0.66 0 1.32 0 2 0 C2 0.66 2 1.32 2 2 C1.34 2 0.68 2 0 2 C0 1.34 0 0.68 0 0 Z " fill="#E9E9E9" transform="translate(13,21)"/>
<path d="M0 0 C0.66 0 1.32 0 2 0 C2 0.66 2 1.32 2 2 C1.34 2 0.68 2 0 2 C0 1.34 0 0.68 0 0 Z " fill="#E9E9E9" transform="translate(10,21)"/>
<path d="M0 0 C0.66 0 1.32 0 2 0 C2 0.66 2 1.32 2 2 C1.34 2 0.68 2 0 2 C0 1.34 0 0.68 0 0 Z " fill="#E9E9E9" transform="translate(0,21)"/>
<path d="M0 0 C0.66 0 1.32 0 2 0 C2 0.66 2 1.32 2 2 C1.34 2 0.68 2 0 2 C0 1.34 0 0.68 0 0 Z " fill="#E9E9E9" transform="translate(98,18)"/>
<path d="M0 0 C0.66 0 1.32 0 2 0 C2 0.66 2 1.32 2 2 C1.34 2 0.68 2 0 2 C0 1.34 0 0.68 0 0 Z " fill="#E9E9E9" transform="translate(88,18)"/>
<path d="M0 0 C0.66 0 1.32 0 2 0 C2 0.66 2 1.32 2 2 C1.34 2 0.68 2 0 2 C0 1.34 0 0.68 0 0 Z " fill="#E9E9E9" transform="translate(85,18)"/>
<path d="M0 0 C0.66 0 1.32 0 2 0 C2 0.66 2 1.32 2 2 C1.34 2 0.68 2 0 2 C0 1.34 0 0.68 0 0 Z " fill="#E9E9E9" transform="translate(78,18)"/>
<path d="M0 0 C0.66 0 1.32 0 2 0 C2 0.66 2 1.32 2 2 C1.34 2 0.68 2 0 2 C0 1.34 0 0.68 0 0 Z " fill="#E9E9E9" transform="translate(75,18)"/>
<path d="M0 0 C0.66 0 1.32 0 2 0 C2 0.66 2 1.32 2 2 C1.34 2 0.68 2 0 2 C0 1.34 0 0.68 0 0 Z " fill="#E9E9E9" transform="translate(28,18)"/>
<path d="M0 0 C0.66 0 1.32 0 2 0 C2 0.66 2 1.32 2 2 C1.34 2 0.68 2 0 2 C0 1.34 0 0.68 0 0 Z " fill="#E9E9E9" transform="translate(25,18)"/>
<path d="M0 0 C0.66 0 1.32 0 2 0 C2 0.66 2 1.32 2 2 C1.34 2 0.68 2 0 2 C0 1.34 0 0.68 0 0 Z " fill="#E9E9E9" transform="translate(18,18)"/>
<path d="M0 0 C0.66 0 1.32 0 2 0 C2 0.66 2 1.32 2 2 C1.34 2 0.68 2 0 2 C0 1.34 0 0.68 0 0 Z " fill="#E9E9E9" transform="translate(15,18)"/>
<path d="M0 0 C0.66 0 1.32 0 2 0 C2 0.66 2 1.32 2 2 C1.34 2 0.68 2 0 2 C0 1.34 0 0.68 0 0 Z " fill="#E9E9E9" transform="translate(8,18)"/>
<path d="M0 0 C0.66 0 1.32 0 2 0 C2 0.66 2 1.32 2 2 C1.34 2 0.68 2 0 2 C0 1.34 0 0.68 0 0 Z " fill="#E9E9E9" transform="translate(5,18)"/>
<path d="M0 0 C0.66 0 1.32 0 2 0 C2 0.66 2 1.32 2 2 C1.34 2 0.68 2 0 2 C0 1.34 0 0.68 0 0 Z " fill="#E9E9E9" transform="translate(90,15)"/>
<path d="M0 0 C0.66 0 1.32 0 2 0 C2 0.66 2 1.32 2 2 C1.34 2 0.68 2 0 2 C0 1.34 0 0.68 0 0 Z " fill="#E9E9E9" transform="translate(13,15)"/>
<path d="M0 0 C0.99 0.495 0.99 0.495 2 1 C1.34 1.66 0.68 2.32 0 3 C0 2.01 0 1.02 0 0 Z " fill="#E9E9E9" transform="translate(95,12)"/>
<path d="M0 0 C0.66 0 1.32 0 2 0 C1.67 0.99 1.34 1.98 1 3 C0.67 2.01 0.34 1.02 0 0 Z " fill="#E8E8E8" transform="translate(3,9)"/>
<path d="M0 0 C0.99 0.495 0.99 0.495 2 1 C1.34 1.66 0.68 2.32 0 3 C0 2.01 0 1.02 0 0 Z " fill="#E8E8E8" transform="translate(95,6)"/>
<path d="M0 0 C0.66 0 1.32 0 2 0 C1.67 0.99 1.34 1.98 1 3 C0.67 2.01 0.34 1.02 0 0 Z " fill="#E7E7E7" transform="translate(3,3)"/>
<path d="M0 0 C0.66 0.66 1.32 1.32 2 2 C1.34 2 0.68 2 0 2 C0 1.34 0 0.68 0 0 Z " fill="#E8E8E8" transform="translate(90,97)"/>
<path d="M0 0 C0.33 0.66 0.66 1.32 1 2 C0.34 1.67 -0.32 1.34 -1 1 C-0.67 0.67 -0.34 0.34 0 0 Z " fill="#E8E8E8" transform="translate(64,97)"/>
<path d="M0 0 C0.66 0.66 1.32 1.32 2 2 C1.34 2 0.68 2 0 2 C0 1.34 0 0.68 0 0 Z " fill="#E8E8E8" transform="translate(40,97)"/>
<path d="M0 0 C0.66 0 1.32 0 2 0 C1.67 0.66 1.34 1.32 1 2 C0.67 1.34 0.34 0.68 0 0 Z " fill="#E8E8E8" transform="translate(53,97)"/>
<path d="M0 0 C0.66 0 1.32 0 2 0 C1.67 0.66 1.34 1.32 1 2 C0.67 1.34 0.34 0.68 0 0 Z " fill="#E8E8E8" transform="translate(3,97)"/>
<path d="" fill="#E8E8E8" transform="translate(0,0)"/>
<path d="" fill="#E8E8E8" transform="translate(0,0)"/>
<path d="" fill="#E8E8E8" transform="translate(0,0)"/>
<path d="" fill="#E8E8E8" transform="translate(0,0)"/>
<path d="" fill="#E8E8E8" transform="translate(0,0)"/>
<path d="" fill="#E8E8E8" transform="translate(0,0)"/>
<path d="" fill="#E8E8E8" transform="translate(0,0)"/>
<path d="" fill="#E8E8E8" transform="translate(0,0)"/>
<path d="" fill="#E8E8E8" transform="translate(0,0)"/>
<path d="" fill="#E8E8E8" transform="translate(0,0)"/>
<path d="" fill="#E8E8E8" transform="translate(0,0)"/>
<path d="" fill="#E8E8E8" transform="translate(0,0)"/>
<path d="" fill="#E8E8E8" transform="translate(0,0)"/>
<path d="" fill="#E8E8E8" transform="translate(0,0)"/>
<path d="" fill="#E8E8E8" transform="translate(0,0)"/>
<path d="" fill="#E8E8E8" transform="translate(0,0)"/>
<path d="" fill="#E8E8E8" transform="translate(0,0)"/>
<path d="" fill="#E8E8E8" transform="translate(0,0)"/>
<path d="" fill="#E7E7E7" transform="translate(0,0)"/>
<path d="" fill="#E7E7E7" transform="translate(0,0)"/>
<path d="" fill="#E7E7E7" transform="translate(0,0)"/>
<path d="" fill="#E7E7E7" transform="translate(0,0)"/>
<path d="" fill="#E7E7E7" transform="translate(0,0)"/>
<path d="" fill="#E7E7E7" transform="translate(0,0)"/>
<path d="" fill="#E7E7E7" transform="translate(0,0)"/>
<path d="" fill="#E7E7E7" transform="translate(0,0)"/>
<path d="" fill="#E7E7E7" transform="translate(0,0)"/>
<path d="" fill="#E7E7E7" transform="translate(0,0)"/>
<path d="" fill="#E7E7E7" transform="translate(0,0)"/>
<path d="" fill="#E7E7E7" transform="translate(0,0)"/>
<path d="" fill="#E7E7E7" transform="translate(0,0)"/>
<path d="" fill="#E7E7E7" transform="translate(0,0)"/>
<path d="" fill="#E7E7E7" transform="translate(0,0)"/>
<path d="" fill="#E7E7E7" transform="translate(0,0)"/>
<path d="" fill="#E7E7E7" transform="translate(0,0)"/>
<path d="" fill="#E7E7E7" transform="translate(0,0)"/>
<path d="" fill="#E7E7E7" transform="translate(0,0)"/>
<path d="" fill="#E7E7E7" transform="translate(0,0)"/>
<path d="" fill="#E7E7E7" transform="translate(0,0)"/>
<path d="" fill="#E7E7E7" transform="translate(0,0)"/>
<path d="" fill="#E7E7E7" transform="translate(0,0)"/>
<path d="" fill="#E8E8E8" transform="translate(0,0)"/>
<path d="" fill="#E8E8E8" transform="translate(0,0)"/>
<path d="" fill="#E8E8E8" transform="translate(0,0)"/>
<path d="" fill="#E8E8E8" transform="translate(0,0)"/>
<path d="" fill="#E8E8E8" transform="translate(0,0)"/>
<path d="" fill="#E8E8E8" transform="translate(0,0)"/>
<path d="" fill="#E7E7E7" transform="translate(0,0)"/>
<path d="" fill="#E7E7E7" transform="translate(0,0)"/>
<path d="" fill="#E7E7E7" transform="translate(0,0)"/>
<path d="" fill="#E7E7E7" transform="translate(0,0)"/>
<path d="" fill="#E7E7E7" transform="translate(0,0)"/>
<path d="" fill="#E7E7E7" transform="translate(0,0)"/>
<path d="" fill="#E7E7E7" transform="translate(0,0)"/>
<path d="" fill="#E7E7E7" transform="translate(0,0)"/>
<path d="" fill="#E7E7E7" transform="translate(0,0)"/>
<path d="" fill="#E7E7E7" transform="translate(0,0)"/>
<path d="" fill="#E7E7E7" transform="translate(0,0)"/>
<path d="" fill="#E7E7E7" transform="translate(0,0)"/>
<path d="" fill="#E7E7E7" transform="translate(0,0)"/>
<path d="" fill="#E7E7E7" transform="translate(0,0)"/>
<path d="" fill="#E8E8E8" transform="translate(0,0)"/>
<path d="" fill="#E8E8E8" transform="translate(0,0)"/>
<path d="" fill="#E8E8E8" transform="translate(0,0)"/>
<path d="" fill="#E8E8E8" transform="translate(0,0)"/>
<path d="" fill="#E8E8E8" transform="translate(0,0)"/>
<path d="" fill="#E8E8E8" transform="translate(0,0)"/>
<path d="" fill="#E8E8E8" transform="translate(0,0)"/>
<path d="" fill="#E8E8E8" transform="translate(0,0)"/>
<path d="" fill="#E8E8E8" transform="translate(0,0)"/>
<path d="" fill="#E8E8E8" transform="translate(0,0)"/>
<path d="" fill="#E8E8E8" transform="translate(0,0)"/>
<path d="" fill="#E8E8E8" transform="translate(0,0)"/>
<path d="" fill="#E8E8E8" transform="translate(0,0)"/>
<path d="" fill="#E8E8E8" transform="translate(0,0)"/>
<path d="" fill="#E8E8E8" transform="translate(0,0)"/>
<path d="" fill="#E8E8E8" transform="translate(0,0)"/>
<path d="" fill="#E8E8E8" transform="translate(0,0)"/>
<path d="" fill="#E8E8E8" transform="translate(0,0)"/>
<path d="" fill="#E8E8E8" transform="translate(0,0)"/>
<path d="" fill="#E8E8E8" transform="translate(0,0)"/>
<path d="" fill="#E8E8E8" transform="translate(0,0)"/>
<path d="" fill="#E8E8E8" transform="translate(0,0)"/>
<path d="" fill="#E8E8E8" transform="translate(0,0)"/>
<path d="" fill="#E7E7E7" transform="translate(0,0)"/>
<path d="" fill="#E7E7E7" transform="translate(0,0)"/>
<path d="" fill="#E7E7E7" transform="translate(0,0)"/>
<path d="" fill="#E7E7E7" transform="translate(0,0)"/>
<path d="" fill="#E7E7E7" transform="translate(0,0)"/>
<path d="" fill="#E7E7E7" transform="translate(0,0)"/>
<path d="" fill="#E7E7E7" transform="translate(0,0)"/>
<path d="" fill="#E7E7E7" transform="translate(0,0)"/>
<path d="" fill="#E7E7E7" transform="translate(0,0)"/>
<path d="" fill="#E7E7E7" transform="translate(0,0)"/>
<path d="" fill="#E7E7E7" transform="translate(0,0)"/>
<path d="" fill="#E7E7E7" transform="translate(0,0)"/>
<path d="" fill="#E7E7E7" transform="translate(0,0)"/>
<path d="" fill="#E6E6E6" transform="translate(0,0)"/>
<path d="" fill="#E6E6E6" transform="translate(0,0)"/>
<path d="" fill="#E6E6E6" transform="translate(0,0)"/>
<path d="" fill="#E6E6E6" transform="translate(0,0)"/>
<path d="" fill="#E6E6E6" transform="translate(0,0)"/>
<path d="" fill="#E7E7E7" transform="translate(0,0)"/>
<path d="" fill="#E7E7E7" transform="translate(0,0)"/>
<path d="" fill="#E7E7E7" transform="translate(0,0)"/>
<path d="" fill="#E6E6E6" transform="translate(0,0)"/>
<path d="" fill="#E6E6E6" transform="translate(0,0)"/>
<path d="" fill="#E7E7E7" transform="translate(0,0)"/>
<path d="" fill="#E7E7E7" transform="translate(0,0)"/>
<path d="" fill="#E7E7E7" transform="translate(0,0)"/>
<path d="" fill="#E7E7E7" transform="translate(0,0)"/>
<path d="" fill="#E7E7E7" transform="translate(0,0)"/>
<path d="" fill="#E7E7E7" transform="translate(0,0)"/>
<path d="" fill="#E7E7E7" transform="translate(0,0)"/>
<path d="" fill="#E7E7E7" transform="translate(0,0)"/>
<path d="" fill="#E7E7E7" transform="translate(0,0)"/>
<path d="" fill="#E7E7E7" transform="translate(0,0)"/>
<path d="" fill="#E7E7E7" transform="translate(0,0)"/>
<path d="" fill="#E7E7E7" transform="translate(0,0)"/>
<path d="" fill="#E7E7E7" transform="translate(0,0)"/>
<path d="" fill="#E7E7E7" transform="translate(0,0)"/>
<path d="" fill="#E8E8E8" transform="translate(0,0)"/>
<path d="" fill="#E8E8E8" transform="translate(0,0)"/>
<path d="" fill="#E8E8E8" transform="translate(0,0)"/>
<path d="" fill="#E8E8E8" transform="translate(0,0)"/>
<path d="" fill="#E8E8E8" transform="translate(0,0)"/>
<path d="" fill="#E8E8E8" transform="translate(0,0)"/>
<path d="" fill="#E8E8E8" transform="translate(0,0)"/>
<path d="" fill="#E8E8E8" transform="translate(0,0)"/>
<path d="" fill="#E8E8E8" transform="translate(0,0)"/>
<path d="" fill="#E8E8E8" transform="translate(0,0)"/>
<path d="M0 0 C0.99 0.495 0.99 0.495 2 1 C1.01 1.495 1.01 1.495 0 2 C0 1.34 0 0.68 0 0 Z " fill="#E8E8E8" transform="translate(90,27)"/>
<path d="M0 0 C0.33 0.66 0.66 1.32 1 2 C0.34 1.67 -0.32 1.34 -1 1 C-0.67 0.67 -0.34 0.34 0 0 Z " fill="#E8E8E8" transform="translate(4,27)"/>
<path d="M0 0 C0.66 0.66 1.32 1.32 2 2 C1.34 2 0.68 2 0 2 C0 1.34 0 0.68 0 0 Z " fill="#E8E8E8" transform="translate(95,24)"/>
<path d="M0 0 C0.66 0 1.32 0 2 0 C1.67 0.66 1.34 1.32 1 2 C0.67 1.34 0.34 0.68 0 0 Z " fill="#E8E8E8" transform="translate(8,24)"/>
<path d="M0 0 C0.33 0.66 0.66 1.32 1 2 C0.34 1.67 -0.32 1.34 -1 1 C-0.67 0.67 -0.34 0.34 0 0 Z " fill="#E8E8E8" transform="translate(4,21)"/>
<path d="M0 0 C0.66 0.66 1.32 1.32 2 2 C1.34 2 0.68 2 0 2 C0 1.34 0 0.68 0 0 Z " fill="#E7E7E7" transform="translate(95,18)"/>
<path d="" fill="#E7E7E7" transform="translate(0,0)"/>
<path d="" fill="#E7E7E7" transform="translate(0,0)"/>
<path d="" fill="#E7E7E7" transform="translate(0,0)"/>
<path d="" fill="#E7E7E7" transform="translate(0,0)"/>
<path d="" fill="#E7E7E7" transform="translate(0,0)"/>
<path d="" fill="#E7E7E7" transform="translate(0,0)"/>
<path d="" fill="#E8E8E8" transform="translate(0,0)"/>
<path d="" fill="#E7E7E7" transform="translate(0,0)"/>
<path d="" fill="#E7E7E7" transform="translate(0,0)"/>
<path d="" fill="#E7E7E7" transform="translate(0,0)"/>
<path d="" fill="#E8E8E8" transform="translate(0,0)"/>
<path d="" fill="#E8E8E8" transform="translate(0,0)"/>
<path d="" fill="#E7E7E7" transform="translate(0,0)"/>
<path d="" fill="#E7E7E7" transform="translate(0,0)"/>
<path d="" fill="#E7E7E7" transform="translate(0,0)"/>
<path d="" fill="#E7E7E7" transform="translate(0,0)"/>
<path d="" fill="#E7E7E7" transform="translate(0,0)"/>
<path d="" fill="#E7E7E7" transform="translate(0,0)"/>
<path d="" fill="#E6E6E6" transform="translate(0,0)"/>
<path d="" fill="#E6E6E6" transform="translate(0,0)"/>
<path d="" fill="#E6E6E6" transform="translate(0,0)"/>
<path d="" fill="#E6E6E6" transform="translate(0,0)"/>
<path d="" fill="#E6E6E6" transform="translate(0,0)"/>
<path d="" fill="#E6E6E6" transform="translate(0,0)"/>
<path d="" fill="#E6E6E6" transform="translate(0,0)"/>
<path d="" fill="#E5E5E5" transform="translate(0,0)"/>
<path d="" fill="#E5E5E5" transform="translate(0,0)"/>
<path d="" fill="#E5E5E5" transform="translate(0,0)"/>
<path d="" fill="#E5E5E5" transform="translate(0,0)"/>
<path d="" fill="#E5E5E5" transform="translate(0,0)"/>
<path d="" fill="#E5E5E5" transform="translate(0,0)"/>
<path d="" fill="#E5E5E5" transform="translate(0,0)"/>
<path d="" fill="#E5E5E5" transform="translate(0,0)"/>
<path d="" fill="#E6E6E6" transform="translate(0,0)"/>
<path d="" fill="#E5E5E5" transform="translate(0,0)"/>
<path d="" fill="#E5E5E5" transform="translate(0,0)"/>
<path d="" fill="#E5E5E5" transform="translate(0,0)"/>
<path d="" fill="#E6E6E6" transform="translate(0,0)"/>
<path d="" fill="#E5E5E5" transform="translate(0,0)"/>
<path d="" fill="#E5E5E5" transform="translate(0,0)"/>
<path d="" fill="#E5E5E5" transform="translate(0,0)"/>
<path d="" fill="#E6E6E6" transform="translate(0,0)"/>
<path d="" fill="#E5E5E5" transform="translate(0,0)"/>
<path d="" fill="#E5E5E5" transform="translate(0,0)"/>
<path d="" fill="#E5E5E5" transform="translate(0,0)"/>
<path d="" fill="#E5E5E5" transform="translate(0,0)"/>
<path d="" fill="#E5E5E5" transform="translate(0,0)"/>
<path d="" fill="#E5E5E5" transform="translate(0,0)"/>
<path d="" fill="#E5E5E5" transform="translate(0,0)"/>
<path d="" fill="#E5E5E5" transform="translate(0,0)"/>
<path d="" fill="#E5E5E5" transform="translate(0,0)"/>
<path d="" fill="#E5E5E5" transform="translate(0,0)"/>
<path d="" fill="#E6E6E6" transform="translate(0,0)"/>
<path d="" fill="#E6E6E6" transform="translate(0,0)"/>
<path d="" fill="#E6E6E6" transform="translate(0,0)"/>
<path d="" fill="#E6E6E6" transform="translate(0,0)"/>
<path d="" fill="#E6E6E6" transform="translate(0,0)"/>
<path d="" fill="#E6E6E6" transform="translate(0,0)"/>
<path d="" fill="#E6E6E6" transform="translate(0,0)"/>
<path d="" fill="#E6E6E6" transform="translate(0,0)"/>
<path d="" fill="#E6E6E6" transform="translate(0,0)"/>
<path d="" fill="#E6E6E6" transform="translate(0,0)"/>
<path d="" fill="#E6E6E6" transform="translate(0,0)"/>
<path d="" fill="#E6E6E6" transform="translate(0,0)"/>
<path d="" fill="#E6E6E6" transform="translate(0,0)"/>
<path d="" fill="#E6E6E6" transform="translate(0,0)"/>
<path d="" fill="#E6E6E6" transform="translate(0,0)"/>
<path d="" fill="#E6E6E6" transform="translate(0,0)"/>
<path d="" fill="#E6E6E6" transform="translate(0,0)"/>
<path d="" fill="#E6E6E6" transform="translate(0,0)"/>
<path d="" fill="#E6E6E6" transform="translate(0,0)"/>
<path d="" fill="#E6E6E6" transform="translate(0,0)"/>
<path d="" fill="#E6E6E6" transform="translate(0,0)"/>
<path d="" fill="#E6E6E6" transform="translate(0,0)"/>
<path d="" fill="#E6E6E6" transform="translate(0,0)"/>
<path d="" fill="#E6E6E6" transform="translate(0,0)"/>
<path d="" fill="#E6E6E6" transform="translate(0,0)"/>
<path d="" fill="#E6E6E6" transform="translate(0,0)"/>
<path d="" fill="#E6E6E6" transform="translate(0,0)"/>
<path d="" fill="#E6E6E6" transform="translate(0,0)"/>
<path d="" fill="#E6E6E6" transform="translate(0,0)"/>
<path d="" fill="#E6E6E6" transform="translate(0,0)"/>
<path d="" fill="#E6E6E6" transform="translate(0,0)"/>
<path d="" fill="#E6E6E6" transform="translate(0,0)"/>
<path d="" fill="#E6E6E6" transform="translate(0,0)"/>
<path d="" fill="#E6E6E6" transform="translate(0,0)"/>
<path d="" fill="#E6E6E6" transform="translate(0,0)"/>
<path d="" fill="#E6E6E6" transform="translate(0,0)"/>
<path d="" fill="#E6E6E6" transform="translate(0,0)"/>
<path d="" fill="#E6E6E6" transform="translate(0,0)"/>
<path d="" fill="#E6E6E6" transform="translate(0,0)"/>
<path d="" fill="#E6E6E6" transform="translate(0,0)"/>
<path d="" fill="#E5E5E5" transform="translate(0,0)"/>
<path d="" fill="#E5E5E5" transform="translate(0,0)"/>
<path d="" fill="#E5E5E5" transform="translate(0,0)"/>
<path d="" fill="#E5E5E5" transform="translate(0,0)"/>
<path d="" fill="#E5E5E5" transform="translate(0,0)"/>
<path d="" fill="#E5E5E5" transform="translate(0,0)"/>
<path d="" fill="#E5E5E5" transform="translate(0,0)"/>
<path d="" fill="#E5E5E5" transform="translate(0,0)"/>
<path d="" fill="#E5E5E5" transform="translate(0,0)"/>
<path d="" fill="#E5E5E5" transform="translate(0,0)"/>
<path d="" fill="#E5E5E5" transform="translate(0,0)"/>
<path d="" fill="#E5E5E5" transform="translate(0,0)"/>
<path d="" fill="#E5E5E5" transform="translate(0,0)"/>
<path d="" fill="#E5E5E5" transform="translate(0,0)"/>
<path d="" fill="#E5E5E5" transform="translate(0,0)"/>
<path d="" fill="#E5E5E5" transform="translate(0,0)"/>
<path d="" fill="#E5E5E5" transform="translate(0,0)"/>
<path d="" fill="#E5E5E5" transform="translate(0,0)"/>
<path d="" fill="#E5E5E5" transform="translate(0,0)"/>
<path d="" fill="#E5E5E5" transform="translate(0,0)"/>
<path d="" fill="#E5E5E5" transform="translate(0,0)"/>
<path d="" fill="#E5E5E5" transform="translate(0,0)"/>
</svg>
